%TF.GenerationSoftware,KiCad,Pcbnew,(5.1.6)-1*%
%TF.CreationDate,2020-09-07T22:38:35-04:00*%
%TF.ProjectId,FATARMATRIXPCBBOARD,46415441-524d-4415-9452-495850434242,rev?*%
%TF.SameCoordinates,Original*%
%TF.FileFunction,Legend,Top*%
%TF.FilePolarity,Positive*%
%FSLAX46Y46*%
G04 Gerber Fmt 4.6, Leading zero omitted, Abs format (unit mm)*
G04 Created by KiCad (PCBNEW (5.1.6)-1) date 2020-09-07 22:38:35*
%MOMM*%
%LPD*%
G01*
G04 APERTURE LIST*
%ADD10C,0.150000*%
%ADD11C,0.250000*%
%ADD12C,0.300000*%
%TA.AperFunction,Profile*%
%ADD13C,0.050000*%
%TD*%
%ADD14C,0.120000*%
G04 APERTURE END LIST*
D10*
X91106666Y-161504380D02*
X91773333Y-162504380D01*
X91773333Y-161504380D02*
X91106666Y-162504380D01*
X88566666Y-161504380D02*
X89233333Y-162504380D01*
X89233333Y-161504380D02*
X88566666Y-162504380D01*
X85598095Y-161504380D02*
X86169523Y-161504380D01*
X85883809Y-162504380D02*
X85883809Y-161504380D01*
X86693333Y-161504380D02*
X86788571Y-161504380D01*
X86883809Y-161552000D01*
X86931428Y-161599619D01*
X86979047Y-161694857D01*
X87026666Y-161885333D01*
X87026666Y-162123428D01*
X86979047Y-162313904D01*
X86931428Y-162409142D01*
X86883809Y-162456761D01*
X86788571Y-162504380D01*
X86693333Y-162504380D01*
X86598095Y-162456761D01*
X86550476Y-162409142D01*
X86502857Y-162313904D01*
X86455238Y-162123428D01*
X86455238Y-161885333D01*
X86502857Y-161694857D01*
X86550476Y-161599619D01*
X86598095Y-161552000D01*
X86693333Y-161504380D01*
X189992000Y-154432000D02*
X189992000Y-137160000D01*
X184404000Y-154432000D02*
X189992000Y-154432000D01*
X184404000Y-165608000D02*
X184404000Y-154432000D01*
D11*
X186845428Y-164254571D02*
X186845428Y-162754571D01*
X187416857Y-162754571D01*
X187559714Y-162826000D01*
X187631142Y-162897428D01*
X187702571Y-163040285D01*
X187702571Y-163254571D01*
X187631142Y-163397428D01*
X187559714Y-163468857D01*
X187416857Y-163540285D01*
X186845428Y-163540285D01*
X188631142Y-162754571D02*
X188916857Y-162754571D01*
X189059714Y-162826000D01*
X189202571Y-162968857D01*
X189274000Y-163254571D01*
X189274000Y-163754571D01*
X189202571Y-164040285D01*
X189059714Y-164183142D01*
X188916857Y-164254571D01*
X188631142Y-164254571D01*
X188488285Y-164183142D01*
X188345428Y-164040285D01*
X188274000Y-163754571D01*
X188274000Y-163254571D01*
X188345428Y-162968857D01*
X188488285Y-162826000D01*
X188631142Y-162754571D01*
X189774000Y-162754571D02*
X190131142Y-164254571D01*
X190416857Y-163183142D01*
X190702571Y-164254571D01*
X191059714Y-162754571D01*
X191631142Y-163468857D02*
X192131142Y-163468857D01*
X192345428Y-164254571D02*
X191631142Y-164254571D01*
X191631142Y-162754571D01*
X192345428Y-162754571D01*
X193845428Y-164254571D02*
X193345428Y-163540285D01*
X192988285Y-164254571D02*
X192988285Y-162754571D01*
X193559714Y-162754571D01*
X193702571Y-162826000D01*
X193774000Y-162897428D01*
X193845428Y-163040285D01*
X193845428Y-163254571D01*
X193774000Y-163397428D01*
X193702571Y-163468857D01*
X193559714Y-163540285D01*
X192988285Y-163540285D01*
X195631142Y-164254571D02*
X195631142Y-162754571D01*
X196345428Y-164254571D02*
X196345428Y-162754571D01*
X197202571Y-164254571D01*
X197202571Y-162754571D01*
D10*
X98913904Y-156285904D02*
X98113904Y-156285904D01*
X98913904Y-155904952D02*
X98113904Y-155904952D01*
X98913904Y-155447809D01*
X98113904Y-155447809D01*
X98113904Y-155181142D02*
X98113904Y-154724000D01*
X98913904Y-154952571D02*
X98113904Y-154952571D01*
X98875809Y-153885904D02*
X98913904Y-153771619D01*
X98913904Y-153581142D01*
X98875809Y-153504952D01*
X98837714Y-153466857D01*
X98761523Y-153428761D01*
X98685333Y-153428761D01*
X98609142Y-153466857D01*
X98571047Y-153504952D01*
X98532952Y-153581142D01*
X98494857Y-153733523D01*
X98456761Y-153809714D01*
X98418666Y-153847809D01*
X98342476Y-153885904D01*
X98266285Y-153885904D01*
X98190095Y-153847809D01*
X98152000Y-153809714D01*
X98113904Y-153733523D01*
X98113904Y-153543047D01*
X98152000Y-153428761D01*
X98113904Y-153200190D02*
X98113904Y-152743047D01*
X98913904Y-152971619D02*
X98113904Y-152971619D01*
X98685333Y-152514476D02*
X98685333Y-152133523D01*
X98913904Y-152590666D02*
X98113904Y-152324000D01*
X98913904Y-152057333D01*
X98113904Y-151904952D02*
X98113904Y-151447809D01*
X98913904Y-151676380D02*
X98113904Y-151676380D01*
X107638857Y-155911238D02*
X107638857Y-155644571D01*
X108057904Y-155530285D02*
X108057904Y-155911238D01*
X107257904Y-155911238D01*
X107257904Y-155530285D01*
X107257904Y-155263619D02*
X108057904Y-154730285D01*
X107257904Y-154730285D02*
X108057904Y-155263619D01*
X107257904Y-154539809D02*
X107257904Y-154082666D01*
X108057904Y-154311238D02*
X107257904Y-154311238D01*
X108019809Y-153244571D02*
X108057904Y-153130285D01*
X108057904Y-152939809D01*
X108019809Y-152863619D01*
X107981714Y-152825523D01*
X107905523Y-152787428D01*
X107829333Y-152787428D01*
X107753142Y-152825523D01*
X107715047Y-152863619D01*
X107676952Y-152939809D01*
X107638857Y-153092190D01*
X107600761Y-153168380D01*
X107562666Y-153206476D01*
X107486476Y-153244571D01*
X107410285Y-153244571D01*
X107334095Y-153206476D01*
X107296000Y-153168380D01*
X107257904Y-153092190D01*
X107257904Y-152901714D01*
X107296000Y-152787428D01*
X107257904Y-152558857D02*
X107257904Y-152101714D01*
X108057904Y-152330285D02*
X107257904Y-152330285D01*
X107829333Y-151873142D02*
X107829333Y-151492190D01*
X108057904Y-151949333D02*
X107257904Y-151682666D01*
X108057904Y-151416000D01*
X107257904Y-151263619D02*
X107257904Y-150806476D01*
X108057904Y-151035047D02*
X107257904Y-151035047D01*
X152463238Y-126198285D02*
X153225142Y-125912571D01*
X152463238Y-125626857D01*
X151987047Y-125912571D02*
X151225142Y-125912571D01*
X150748952Y-125912571D02*
X149987047Y-125912571D01*
X149510857Y-125912571D02*
X148748952Y-125912571D01*
X148272761Y-125912571D02*
X147510857Y-125912571D01*
X71564761Y-126277714D02*
X70802857Y-126563428D01*
X71564761Y-126849142D01*
X72040952Y-126563428D02*
X72802857Y-126563428D01*
X73279047Y-126563428D02*
X74040952Y-126563428D01*
X74517142Y-126563428D02*
X75279047Y-126563428D01*
X75755238Y-126563428D02*
X76517142Y-126563428D01*
X119594857Y-139120571D02*
X119928190Y-139120571D01*
X120071047Y-139644380D02*
X119594857Y-139644380D01*
X119594857Y-138644380D01*
X120071047Y-138644380D01*
X120404380Y-138644380D02*
X121071047Y-139644380D01*
X121071047Y-138644380D02*
X120404380Y-139644380D01*
X121309142Y-138644380D02*
X121880571Y-138644380D01*
X121594857Y-139644380D02*
X121594857Y-138644380D01*
X122975809Y-139644380D02*
X122975809Y-138644380D01*
X123309142Y-139358666D01*
X123642476Y-138644380D01*
X123642476Y-139644380D01*
X124118666Y-139644380D02*
X124118666Y-138644380D01*
X124594857Y-139644380D02*
X124594857Y-138644380D01*
X124832952Y-138644380D01*
X124975809Y-138692000D01*
X125071047Y-138787238D01*
X125118666Y-138882476D01*
X125166285Y-139072952D01*
X125166285Y-139215809D01*
X125118666Y-139406285D01*
X125071047Y-139501523D01*
X124975809Y-139596761D01*
X124832952Y-139644380D01*
X124594857Y-139644380D01*
X125594857Y-139644380D02*
X125594857Y-138644380D01*
X126832952Y-139120571D02*
X127166285Y-139120571D01*
X127309142Y-139644380D02*
X126832952Y-139644380D01*
X126832952Y-138644380D01*
X127309142Y-138644380D01*
X127737714Y-139644380D02*
X127737714Y-138644380D01*
X128309142Y-139644380D01*
X128309142Y-138644380D01*
X67818095Y-161504380D02*
X68389523Y-161504380D01*
X68103809Y-162504380D02*
X68103809Y-161504380D01*
X68627619Y-161504380D02*
X69294285Y-161504380D01*
X68865714Y-162504380D01*
X70358095Y-161504380D02*
X70929523Y-161504380D01*
X70643809Y-162504380D02*
X70643809Y-161504380D01*
X71691428Y-161504380D02*
X71500952Y-161504380D01*
X71405714Y-161552000D01*
X71358095Y-161599619D01*
X71262857Y-161742476D01*
X71215238Y-161932952D01*
X71215238Y-162313904D01*
X71262857Y-162409142D01*
X71310476Y-162456761D01*
X71405714Y-162504380D01*
X71596190Y-162504380D01*
X71691428Y-162456761D01*
X71739047Y-162409142D01*
X71786666Y-162313904D01*
X71786666Y-162075809D01*
X71739047Y-161980571D01*
X71691428Y-161932952D01*
X71596190Y-161885333D01*
X71405714Y-161885333D01*
X71310476Y-161932952D01*
X71262857Y-161980571D01*
X71215238Y-162075809D01*
X72898095Y-161504380D02*
X73469523Y-161504380D01*
X73183809Y-162504380D02*
X73183809Y-161504380D01*
X74279047Y-161504380D02*
X73802857Y-161504380D01*
X73755238Y-161980571D01*
X73802857Y-161932952D01*
X73898095Y-161885333D01*
X74136190Y-161885333D01*
X74231428Y-161932952D01*
X74279047Y-161980571D01*
X74326666Y-162075809D01*
X74326666Y-162313904D01*
X74279047Y-162409142D01*
X74231428Y-162456761D01*
X74136190Y-162504380D01*
X73898095Y-162504380D01*
X73802857Y-162456761D01*
X73755238Y-162409142D01*
X75438095Y-161504380D02*
X76009523Y-161504380D01*
X75723809Y-162504380D02*
X75723809Y-161504380D01*
X76771428Y-161837714D02*
X76771428Y-162504380D01*
X76533333Y-161456761D02*
X76295238Y-162171047D01*
X76914285Y-162171047D01*
X77978095Y-161504380D02*
X78549523Y-161504380D01*
X78263809Y-162504380D02*
X78263809Y-161504380D01*
X78787619Y-161504380D02*
X79406666Y-161504380D01*
X79073333Y-161885333D01*
X79216190Y-161885333D01*
X79311428Y-161932952D01*
X79359047Y-161980571D01*
X79406666Y-162075809D01*
X79406666Y-162313904D01*
X79359047Y-162409142D01*
X79311428Y-162456761D01*
X79216190Y-162504380D01*
X78930476Y-162504380D01*
X78835238Y-162456761D01*
X78787619Y-162409142D01*
X80518095Y-161504380D02*
X81089523Y-161504380D01*
X80803809Y-162504380D02*
X80803809Y-161504380D01*
X81375238Y-161599619D02*
X81422857Y-161552000D01*
X81518095Y-161504380D01*
X81756190Y-161504380D01*
X81851428Y-161552000D01*
X81899047Y-161599619D01*
X81946666Y-161694857D01*
X81946666Y-161790095D01*
X81899047Y-161932952D01*
X81327619Y-162504380D01*
X81946666Y-162504380D01*
X83058095Y-161504380D02*
X83629523Y-161504380D01*
X83343809Y-162504380D02*
X83343809Y-161504380D01*
X84486666Y-162504380D02*
X83915238Y-162504380D01*
X84200952Y-162504380D02*
X84200952Y-161504380D01*
X84105714Y-161647238D01*
X84010476Y-161742476D01*
X83915238Y-161790095D01*
X68286476Y-154376380D02*
X68286476Y-153376380D01*
X68619809Y-154090666D01*
X68953142Y-153376380D01*
X68953142Y-154376380D01*
X69429333Y-154376380D02*
X69429333Y-153376380D01*
X70000761Y-154376380D02*
X69572190Y-153804952D01*
X70000761Y-153376380D02*
X69429333Y-153947809D01*
X70857904Y-153709714D02*
X70857904Y-154376380D01*
X70619809Y-153328761D02*
X70381714Y-154043047D01*
X71000761Y-154043047D01*
X73366476Y-154376380D02*
X73366476Y-153376380D01*
X73699809Y-154090666D01*
X74033142Y-153376380D01*
X74033142Y-154376380D01*
X74509333Y-154376380D02*
X74509333Y-153376380D01*
X75080761Y-154376380D02*
X74652190Y-153804952D01*
X75080761Y-153376380D02*
X74509333Y-153947809D01*
X75414095Y-153376380D02*
X76033142Y-153376380D01*
X75699809Y-153757333D01*
X75842666Y-153757333D01*
X75937904Y-153804952D01*
X75985523Y-153852571D01*
X76033142Y-153947809D01*
X76033142Y-154185904D01*
X75985523Y-154281142D01*
X75937904Y-154328761D01*
X75842666Y-154376380D01*
X75556952Y-154376380D01*
X75461714Y-154328761D01*
X75414095Y-154281142D01*
X78446476Y-154376380D02*
X78446476Y-153376380D01*
X78779809Y-154090666D01*
X79113142Y-153376380D01*
X79113142Y-154376380D01*
X79589333Y-154376380D02*
X79589333Y-153376380D01*
X80160761Y-154376380D02*
X79732190Y-153804952D01*
X80160761Y-153376380D02*
X79589333Y-153947809D01*
X80541714Y-153471619D02*
X80589333Y-153424000D01*
X80684571Y-153376380D01*
X80922666Y-153376380D01*
X81017904Y-153424000D01*
X81065523Y-153471619D01*
X81113142Y-153566857D01*
X81113142Y-153662095D01*
X81065523Y-153804952D01*
X80494095Y-154376380D01*
X81113142Y-154376380D01*
X83526476Y-154376380D02*
X83526476Y-153376380D01*
X83859809Y-154090666D01*
X84193142Y-153376380D01*
X84193142Y-154376380D01*
X84669333Y-154376380D02*
X84669333Y-153376380D01*
X85240761Y-154376380D02*
X84812190Y-153804952D01*
X85240761Y-153376380D02*
X84669333Y-153947809D01*
X86193142Y-154376380D02*
X85621714Y-154376380D01*
X85907428Y-154376380D02*
X85907428Y-153376380D01*
X85812190Y-153519238D01*
X85716952Y-153614476D01*
X85621714Y-153662095D01*
X88606476Y-154376380D02*
X88606476Y-153376380D01*
X88939809Y-154090666D01*
X89273142Y-153376380D01*
X89273142Y-154376380D01*
X89749333Y-154376380D02*
X89749333Y-153376380D01*
X90320761Y-154376380D02*
X89892190Y-153804952D01*
X90320761Y-153376380D02*
X89749333Y-153947809D01*
X90939809Y-153376380D02*
X91035047Y-153376380D01*
X91130285Y-153424000D01*
X91177904Y-153471619D01*
X91225523Y-153566857D01*
X91273142Y-153757333D01*
X91273142Y-153995428D01*
X91225523Y-154185904D01*
X91177904Y-154281142D01*
X91130285Y-154328761D01*
X91035047Y-154376380D01*
X90939809Y-154376380D01*
X90844571Y-154328761D01*
X90796952Y-154281142D01*
X90749333Y-154185904D01*
X90701714Y-153995428D01*
X90701714Y-153757333D01*
X90749333Y-153566857D01*
X90796952Y-153471619D01*
X90844571Y-153424000D01*
X90939809Y-153376380D01*
D12*
X135795428Y-126662571D02*
X135795428Y-125162571D01*
X136652571Y-126662571D01*
X136652571Y-125162571D01*
X137295428Y-126234000D02*
X138009714Y-126234000D01*
X137152571Y-126662571D02*
X137652571Y-125162571D01*
X138152571Y-126662571D01*
X138652571Y-126662571D02*
X138652571Y-125162571D01*
X139509714Y-126662571D01*
X139509714Y-125162571D01*
X140509714Y-125162571D02*
X140795428Y-125162571D01*
X140938285Y-125234000D01*
X141081142Y-125376857D01*
X141152571Y-125662571D01*
X141152571Y-126162571D01*
X141081142Y-126448285D01*
X140938285Y-126591142D01*
X140795428Y-126662571D01*
X140509714Y-126662571D01*
X140366857Y-126591142D01*
X140224000Y-126448285D01*
X140152571Y-126162571D01*
X140152571Y-125662571D01*
X140224000Y-125376857D01*
X140366857Y-125234000D01*
X140509714Y-125162571D01*
X142724000Y-125162571D02*
X143581142Y-125162571D01*
X143152571Y-126662571D02*
X143152571Y-125162571D01*
X143938285Y-125162571D02*
X144295428Y-126662571D01*
X144581142Y-125591142D01*
X144866857Y-126662571D01*
X145224000Y-125162571D01*
X146081142Y-125162571D02*
X146366857Y-125162571D01*
X146509714Y-125234000D01*
X146652571Y-125376857D01*
X146724000Y-125662571D01*
X146724000Y-126162571D01*
X146652571Y-126448285D01*
X146509714Y-126591142D01*
X146366857Y-126662571D01*
X146081142Y-126662571D01*
X145938285Y-126591142D01*
X145795428Y-126448285D01*
X145724000Y-126162571D01*
X145724000Y-125662571D01*
X145795428Y-125376857D01*
X145938285Y-125234000D01*
X146081142Y-125162571D01*
X77847714Y-127170571D02*
X77847714Y-125670571D01*
X78704857Y-127170571D01*
X78704857Y-125670571D01*
X79347714Y-126742000D02*
X80062000Y-126742000D01*
X79204857Y-127170571D02*
X79704857Y-125670571D01*
X80204857Y-127170571D01*
X80704857Y-127170571D02*
X80704857Y-125670571D01*
X81562000Y-127170571D01*
X81562000Y-125670571D01*
X82562000Y-125670571D02*
X82847714Y-125670571D01*
X82990571Y-125742000D01*
X83133428Y-125884857D01*
X83204857Y-126170571D01*
X83204857Y-126670571D01*
X83133428Y-126956285D01*
X82990571Y-127099142D01*
X82847714Y-127170571D01*
X82562000Y-127170571D01*
X82419142Y-127099142D01*
X82276285Y-126956285D01*
X82204857Y-126670571D01*
X82204857Y-126170571D01*
X82276285Y-125884857D01*
X82419142Y-125742000D01*
X82562000Y-125670571D01*
X85276285Y-125670571D02*
X85562000Y-125670571D01*
X85704857Y-125742000D01*
X85847714Y-125884857D01*
X85919142Y-126170571D01*
X85919142Y-126670571D01*
X85847714Y-126956285D01*
X85704857Y-127099142D01*
X85562000Y-127170571D01*
X85276285Y-127170571D01*
X85133428Y-127099142D01*
X84990571Y-126956285D01*
X84919142Y-126670571D01*
X84919142Y-126170571D01*
X84990571Y-125884857D01*
X85133428Y-125742000D01*
X85276285Y-125670571D01*
X86562000Y-127170571D02*
X86562000Y-125670571D01*
X87419142Y-127170571D01*
X87419142Y-125670571D01*
X88133428Y-126384857D02*
X88633428Y-126384857D01*
X88847714Y-127170571D02*
X88133428Y-127170571D01*
X88133428Y-125670571D01*
X88847714Y-125670571D01*
D13*
X57404000Y-111760000D02*
X57404000Y-165608000D01*
X160020000Y-111760000D02*
X57404000Y-111760000D01*
X160020000Y-114300000D02*
X160020000Y-111760000D01*
X160020000Y-137160000D02*
X160020000Y-114300000D01*
X213360000Y-137160000D02*
X160020000Y-137160000D01*
X213360000Y-165608000D02*
X213360000Y-137160000D01*
X57404000Y-165608000D02*
X213360000Y-165608000D01*
D11*
X144713009Y-163090330D02*
X144561486Y-163140837D01*
X144409963Y-163292360D01*
X144308948Y-163494391D01*
X144308948Y-163696421D01*
X144359456Y-163847944D01*
X144510979Y-164100482D01*
X144662502Y-164252005D01*
X144915040Y-164403528D01*
X145066563Y-164454036D01*
X145268593Y-164454036D01*
X145470624Y-164353020D01*
X145571639Y-164252005D01*
X145672654Y-164049975D01*
X145672654Y-163948959D01*
X145319101Y-163595406D01*
X145117070Y-163797436D01*
X145874685Y-163342868D02*
X146379761Y-162837791D01*
X146076715Y-163746929D02*
X145369608Y-162332715D01*
X146783822Y-163039822D01*
X145925192Y-161777131D02*
X146531284Y-161171040D01*
X147288898Y-162534746D02*
X146228238Y-161474086D01*
X147389913Y-161322563D02*
X147743467Y-160969009D01*
X148450574Y-161373070D02*
X147945497Y-161878147D01*
X146884837Y-160817486D01*
X147389913Y-160312410D01*
X148678918Y-163595406D02*
X149285009Y-162989314D01*
X150042624Y-164353020D02*
X148981963Y-163292360D01*
X151305314Y-163090330D02*
X150446685Y-162938807D01*
X150699223Y-163696421D02*
X149638563Y-162635761D01*
X150042624Y-162231700D01*
X150194147Y-162181192D01*
X150295162Y-162181192D01*
X150446685Y-162231700D01*
X150598208Y-162383223D01*
X150648715Y-162534746D01*
X150648715Y-162635761D01*
X150598208Y-162787284D01*
X150194147Y-163191345D01*
X151759883Y-162635761D02*
X150699223Y-161575101D01*
X151810391Y-160564948D02*
X151658868Y-160615456D01*
X151507345Y-160766979D01*
X151406330Y-160969009D01*
X151406330Y-161171040D01*
X151456837Y-161322563D01*
X151608360Y-161575101D01*
X151759883Y-161726624D01*
X152012421Y-161878147D01*
X152163944Y-161928654D01*
X152365975Y-161928654D01*
X152568005Y-161827639D01*
X152669020Y-161726624D01*
X152770036Y-161524593D01*
X152770036Y-161423578D01*
X152416482Y-161070024D01*
X152214452Y-161272055D01*
X155703461Y-163570152D02*
X155703461Y-163671167D01*
X155602446Y-163873198D01*
X155501431Y-163974213D01*
X155299400Y-164075228D01*
X155097370Y-164075228D01*
X154945847Y-164024721D01*
X154693309Y-163873198D01*
X154541786Y-163721675D01*
X154390263Y-163469137D01*
X154339755Y-163317614D01*
X154339755Y-163115583D01*
X154440771Y-162913553D01*
X154541786Y-162812538D01*
X154743816Y-162711522D01*
X154844832Y-162711522D01*
X156764122Y-162711522D02*
X156259045Y-163216599D01*
X155198385Y-162155938D01*
X157117675Y-162357969D02*
X156057015Y-161297309D01*
X157723766Y-161751877D02*
X156663106Y-161600355D01*
X156663106Y-160691217D02*
X156663106Y-161903400D01*
X160707700Y-163339944D02*
X159647040Y-162279284D01*
X160051101Y-161875223D01*
X160202624Y-161824715D01*
X160303639Y-161824715D01*
X160455162Y-161875223D01*
X160606685Y-162026746D01*
X160657192Y-162178269D01*
X160657192Y-162279284D01*
X160606685Y-162430807D01*
X160202624Y-162834868D01*
X161566330Y-161370147D02*
X161768360Y-161269131D01*
X161869375Y-161269131D01*
X162020898Y-161319639D01*
X162172421Y-161471162D01*
X162222929Y-161622685D01*
X162222929Y-161723700D01*
X162172421Y-161875223D01*
X161768360Y-162279284D01*
X160707700Y-161218624D01*
X161061253Y-160865070D01*
X161212776Y-160814563D01*
X161313791Y-160814563D01*
X161465314Y-160865070D01*
X161566330Y-160966086D01*
X161616837Y-161117608D01*
X161616837Y-161218624D01*
X161566330Y-161370147D01*
X161212776Y-161723700D01*
X164272471Y-162733852D02*
X165686685Y-163440959D01*
X164979578Y-162026746D01*
X165838208Y-162178269D02*
X166191761Y-161824715D01*
X166898868Y-162228776D02*
X166393791Y-162733852D01*
X165333131Y-161673192D01*
X165838208Y-161168116D01*
X167858513Y-161269131D02*
X167353436Y-161774208D01*
X166292776Y-160713547D01*
X169933309Y-164782335D02*
X168872649Y-163721675D01*
X170539400Y-164176244D01*
X169478740Y-163115583D01*
X170185847Y-162408477D02*
X170387877Y-162206446D01*
X170539400Y-162155938D01*
X170741431Y-162155938D01*
X170993969Y-162307461D01*
X171347522Y-162661015D01*
X171499045Y-162913553D01*
X171499045Y-163115583D01*
X171448538Y-163267106D01*
X171246507Y-163469137D01*
X171094984Y-163519644D01*
X170892954Y-163519644D01*
X170640416Y-163368122D01*
X170286862Y-163014568D01*
X170135339Y-162762030D01*
X170135339Y-162560000D01*
X170185847Y-162408477D01*
X170943461Y-161650862D02*
X171549553Y-161044771D01*
X172307167Y-162408477D02*
X171246507Y-161347816D01*
X172408183Y-161196294D02*
X172761736Y-160842740D01*
X173468843Y-161246801D02*
X172963766Y-161751877D01*
X171903106Y-160691217D01*
X172408183Y-160186141D01*
X175111400Y-163974213D02*
X175111400Y-164075228D01*
X175010385Y-164277259D01*
X174909370Y-164378274D01*
X174707339Y-164479289D01*
X174505309Y-164479289D01*
X174353786Y-164428782D01*
X174101248Y-164277259D01*
X173949725Y-164125736D01*
X173798202Y-163873198D01*
X173747694Y-163721675D01*
X173747694Y-163519644D01*
X173848710Y-163317614D01*
X173949725Y-163216599D01*
X174151755Y-163115583D01*
X174252771Y-163115583D01*
X174454801Y-162711522D02*
X175060893Y-162105431D01*
X175818507Y-163469137D02*
X174757847Y-162408477D01*
X177081198Y-162206446D02*
X176222568Y-162054923D01*
X176475106Y-162812538D02*
X175414446Y-161751877D01*
X175818507Y-161347816D01*
X175970030Y-161297309D01*
X176071045Y-161297309D01*
X176222568Y-161347816D01*
X176374091Y-161499339D01*
X176424599Y-161650862D01*
X176424599Y-161751877D01*
X176374091Y-161903400D01*
X175970030Y-162307461D01*
X178040843Y-161246801D02*
X177535766Y-161751877D01*
X176475106Y-160691217D01*
X180017547Y-162837791D02*
X179866024Y-162888299D01*
X179714502Y-163039822D01*
X179613486Y-163241852D01*
X179613486Y-163443883D01*
X179663994Y-163595406D01*
X179815517Y-163847944D01*
X179967040Y-163999467D01*
X180219578Y-164150990D01*
X180371101Y-164201497D01*
X180573131Y-164201497D01*
X180775162Y-164100482D01*
X180876177Y-163999467D01*
X180977192Y-163797436D01*
X180977192Y-163696421D01*
X180623639Y-163342868D01*
X180421608Y-163544898D01*
X181532776Y-163342868D02*
X180472116Y-162282208D01*
X182138868Y-162736776D01*
X181078208Y-161676116D01*
X182643944Y-162231700D02*
X181583284Y-161171040D01*
X181835822Y-160918502D01*
X182037852Y-160817486D01*
X182239883Y-160817486D01*
X182391406Y-160867994D01*
X182643944Y-161019517D01*
X182795467Y-161171040D01*
X182946990Y-161423578D01*
X182997497Y-161575101D01*
X182997497Y-161777131D01*
X182896482Y-161979162D01*
X182643944Y-162231700D01*
D12*
X71021999Y-141614857D02*
X70521999Y-141614857D01*
X70521999Y-142400571D02*
X70521999Y-140900571D01*
X71236285Y-140900571D01*
X71736285Y-141972000D02*
X72450571Y-141972000D01*
X71593428Y-142400571D02*
X72093428Y-140900571D01*
X72593428Y-142400571D01*
X72879142Y-140900571D02*
X73736285Y-140900571D01*
X73307714Y-142400571D02*
X73307714Y-140900571D01*
X74164857Y-141972000D02*
X74879142Y-141972000D01*
X74021999Y-142400571D02*
X74521999Y-140900571D01*
X75021999Y-142400571D01*
X76379142Y-142400571D02*
X75879142Y-141686285D01*
X75521999Y-142400571D02*
X75521999Y-140900571D01*
X76093428Y-140900571D01*
X76236285Y-140972000D01*
X76307714Y-141043428D01*
X76379142Y-141186285D01*
X76379142Y-141400571D01*
X76307714Y-141543428D01*
X76236285Y-141614857D01*
X76093428Y-141686285D01*
X75521999Y-141686285D01*
X78164857Y-142400571D02*
X78164857Y-140900571D01*
X78664857Y-141972000D01*
X79164857Y-140900571D01*
X79164857Y-142400571D01*
X79879142Y-142400571D02*
X79879142Y-140900571D01*
X80593428Y-142400571D02*
X80593428Y-140900571D01*
X80950571Y-140900571D01*
X81164857Y-140972000D01*
X81307714Y-141114857D01*
X81379142Y-141257714D01*
X81450571Y-141543428D01*
X81450571Y-141757714D01*
X81379142Y-142043428D01*
X81307714Y-142186285D01*
X81164857Y-142329142D01*
X80950571Y-142400571D01*
X80593428Y-142400571D01*
X82093428Y-142400571D02*
X82093428Y-140900571D01*
X83736285Y-140900571D02*
X84593428Y-140900571D01*
X84164857Y-142400571D02*
X84164857Y-140900571D01*
X85379142Y-140900571D02*
X85664857Y-140900571D01*
X85807714Y-140972000D01*
X85950571Y-141114857D01*
X86021999Y-141400571D01*
X86021999Y-141900571D01*
X85950571Y-142186285D01*
X85807714Y-142329142D01*
X85664857Y-142400571D01*
X85379142Y-142400571D01*
X85236285Y-142329142D01*
X85093428Y-142186285D01*
X85021999Y-141900571D01*
X85021999Y-141400571D01*
X85093428Y-141114857D01*
X85236285Y-140972000D01*
X85379142Y-140900571D01*
X88664857Y-142257714D02*
X88593428Y-142329142D01*
X88379142Y-142400571D01*
X88236285Y-142400571D01*
X88021999Y-142329142D01*
X87879142Y-142186285D01*
X87807714Y-142043428D01*
X87736285Y-141757714D01*
X87736285Y-141543428D01*
X87807714Y-141257714D01*
X87879142Y-141114857D01*
X88021999Y-140972000D01*
X88236285Y-140900571D01*
X88379142Y-140900571D01*
X88593428Y-140972000D01*
X88664857Y-141043428D01*
X89093428Y-140900571D02*
X89593428Y-142400571D01*
X90093428Y-140900571D01*
X67343428Y-144950571D02*
X67343428Y-143450571D01*
X67914857Y-143450571D01*
X68057714Y-143522000D01*
X68129142Y-143593428D01*
X68200571Y-143736285D01*
X68200571Y-143950571D01*
X68129142Y-144093428D01*
X68057714Y-144164857D01*
X67914857Y-144236285D01*
X67343428Y-144236285D01*
X68772000Y-144522000D02*
X69486285Y-144522000D01*
X68629142Y-144950571D02*
X69129142Y-143450571D01*
X69629142Y-144950571D01*
X70986285Y-144950571D02*
X70486285Y-144236285D01*
X70129142Y-144950571D02*
X70129142Y-143450571D01*
X70700571Y-143450571D01*
X70843428Y-143522000D01*
X70914857Y-143593428D01*
X70986285Y-143736285D01*
X70986285Y-143950571D01*
X70914857Y-144093428D01*
X70843428Y-144164857D01*
X70700571Y-144236285D01*
X70129142Y-144236285D01*
X71629142Y-144950571D02*
X71629142Y-143450571D01*
X72486285Y-144950571D02*
X71843428Y-144093428D01*
X72486285Y-143450571D02*
X71629142Y-144307714D01*
X73129142Y-144164857D02*
X73629142Y-144164857D01*
X73843428Y-144950571D02*
X73129142Y-144950571D01*
X73129142Y-143450571D01*
X73843428Y-143450571D01*
X75343428Y-144950571D02*
X74843428Y-144236285D01*
X74486285Y-144950571D02*
X74486285Y-143450571D01*
X75057714Y-143450571D01*
X75200571Y-143522000D01*
X75272000Y-143593428D01*
X75343428Y-143736285D01*
X75343428Y-143950571D01*
X75272000Y-144093428D01*
X75200571Y-144164857D01*
X75057714Y-144236285D01*
X74486285Y-144236285D01*
X77129142Y-144164857D02*
X77629142Y-144164857D01*
X77843428Y-144950571D02*
X77129142Y-144950571D01*
X77129142Y-143450571D01*
X77843428Y-143450571D01*
X79200571Y-144950571D02*
X78486285Y-144950571D01*
X78486285Y-143450571D01*
X79700571Y-144164857D02*
X80200571Y-144164857D01*
X80414857Y-144950571D02*
X79700571Y-144950571D01*
X79700571Y-143450571D01*
X80414857Y-143450571D01*
X81914857Y-144807714D02*
X81843428Y-144879142D01*
X81629142Y-144950571D01*
X81486285Y-144950571D01*
X81272000Y-144879142D01*
X81129142Y-144736285D01*
X81057714Y-144593428D01*
X80986285Y-144307714D01*
X80986285Y-144093428D01*
X81057714Y-143807714D01*
X81129142Y-143664857D01*
X81272000Y-143522000D01*
X81486285Y-143450571D01*
X81629142Y-143450571D01*
X81843428Y-143522000D01*
X81914857Y-143593428D01*
X82343428Y-143450571D02*
X83200571Y-143450571D01*
X82772000Y-144950571D02*
X82772000Y-143450571D01*
X84557714Y-144950571D02*
X84057714Y-144236285D01*
X83700571Y-144950571D02*
X83700571Y-143450571D01*
X84272000Y-143450571D01*
X84414857Y-143522000D01*
X84486285Y-143593428D01*
X84557714Y-143736285D01*
X84557714Y-143950571D01*
X84486285Y-144093428D01*
X84414857Y-144164857D01*
X84272000Y-144236285D01*
X83700571Y-144236285D01*
X85486285Y-143450571D02*
X85772000Y-143450571D01*
X85914857Y-143522000D01*
X86057714Y-143664857D01*
X86129142Y-143950571D01*
X86129142Y-144450571D01*
X86057714Y-144736285D01*
X85914857Y-144879142D01*
X85772000Y-144950571D01*
X85486285Y-144950571D01*
X85343428Y-144879142D01*
X85200571Y-144736285D01*
X85129142Y-144450571D01*
X85129142Y-143950571D01*
X85200571Y-143664857D01*
X85343428Y-143522000D01*
X85486285Y-143450571D01*
X86772000Y-144950571D02*
X86772000Y-143450571D01*
X87629142Y-144950571D02*
X86986285Y-144093428D01*
X87629142Y-143450571D02*
X86772000Y-144307714D01*
X89129142Y-144950571D02*
X88629142Y-144236285D01*
X88272000Y-144950571D02*
X88272000Y-143450571D01*
X88843428Y-143450571D01*
X88986285Y-143522000D01*
X89057714Y-143593428D01*
X89129142Y-143736285D01*
X89129142Y-143950571D01*
X89057714Y-144093428D01*
X88986285Y-144164857D01*
X88843428Y-144236285D01*
X88272000Y-144236285D01*
X89700571Y-144522000D02*
X90414857Y-144522000D01*
X89557714Y-144950571D02*
X90057714Y-143450571D01*
X90557714Y-144950571D01*
X91557714Y-144164857D02*
X91057714Y-144164857D01*
X91057714Y-144950571D02*
X91057714Y-143450571D01*
X91772000Y-143450571D01*
X92129142Y-143450571D02*
X92986285Y-143450571D01*
X92557714Y-144950571D02*
X92557714Y-143450571D01*
X93414857Y-144879142D02*
X93629142Y-144950571D01*
X93986285Y-144950571D01*
X94129142Y-144879142D01*
X94200571Y-144807714D01*
X94272000Y-144664857D01*
X94272000Y-144522000D01*
X94200571Y-144379142D01*
X94129142Y-144307714D01*
X93986285Y-144236285D01*
X93700571Y-144164857D01*
X93557714Y-144093428D01*
X93486285Y-144022000D01*
X93414857Y-143879142D01*
X93414857Y-143736285D01*
X93486285Y-143593428D01*
X93557714Y-143522000D01*
X93700571Y-143450571D01*
X94057714Y-143450571D01*
X94272000Y-143522000D01*
X72272000Y-147500571D02*
X71772000Y-146786285D01*
X71414857Y-147500571D02*
X71414857Y-146000571D01*
X71986285Y-146000571D01*
X72129142Y-146072000D01*
X72200571Y-146143428D01*
X72272000Y-146286285D01*
X72272000Y-146500571D01*
X72200571Y-146643428D01*
X72129142Y-146714857D01*
X71986285Y-146786285D01*
X71414857Y-146786285D01*
X72914857Y-146714857D02*
X73414857Y-146714857D01*
X73629142Y-147500571D02*
X72914857Y-147500571D01*
X72914857Y-146000571D01*
X73629142Y-146000571D01*
X74057714Y-146000571D02*
X74557714Y-147500571D01*
X75057714Y-146000571D01*
X76343428Y-147500571D02*
X75486285Y-147500571D01*
X75914857Y-147500571D02*
X75914857Y-146000571D01*
X75772000Y-146214857D01*
X75629142Y-146357714D01*
X75486285Y-146429142D01*
X76986285Y-147357714D02*
X77057714Y-147429142D01*
X76986285Y-147500571D01*
X76914857Y-147429142D01*
X76986285Y-147357714D01*
X76986285Y-147500571D01*
X77986285Y-146000571D02*
X78129142Y-146000571D01*
X78272000Y-146072000D01*
X78343428Y-146143428D01*
X78414857Y-146286285D01*
X78486285Y-146572000D01*
X78486285Y-146929142D01*
X78414857Y-147214857D01*
X78343428Y-147357714D01*
X78272000Y-147429142D01*
X78129142Y-147500571D01*
X77986285Y-147500571D01*
X77843428Y-147429142D01*
X77772000Y-147357714D01*
X77700571Y-147214857D01*
X77629142Y-146929142D01*
X77629142Y-146572000D01*
X77700571Y-146286285D01*
X77772000Y-146143428D01*
X77843428Y-146072000D01*
X77986285Y-146000571D01*
X80343428Y-147500571D02*
X80629142Y-147500571D01*
X80772000Y-147429142D01*
X80843428Y-147357714D01*
X80986285Y-147143428D01*
X81057714Y-146857714D01*
X81057714Y-146286285D01*
X80986285Y-146143428D01*
X80914857Y-146072000D01*
X80772000Y-146000571D01*
X80486285Y-146000571D01*
X80343428Y-146072000D01*
X80272000Y-146143428D01*
X80200571Y-146286285D01*
X80200571Y-146643428D01*
X80272000Y-146786285D01*
X80343428Y-146857714D01*
X80486285Y-146929142D01*
X80772000Y-146929142D01*
X80914857Y-146857714D01*
X80986285Y-146786285D01*
X81057714Y-146643428D01*
X81700571Y-146929142D02*
X82843428Y-146929142D01*
X84200571Y-146000571D02*
X83914857Y-146000571D01*
X83772000Y-146072000D01*
X83700571Y-146143428D01*
X83557714Y-146357714D01*
X83486285Y-146643428D01*
X83486285Y-147214857D01*
X83557714Y-147357714D01*
X83629142Y-147429142D01*
X83772000Y-147500571D01*
X84057714Y-147500571D01*
X84200571Y-147429142D01*
X84272000Y-147357714D01*
X84343428Y-147214857D01*
X84343428Y-146857714D01*
X84272000Y-146714857D01*
X84200571Y-146643428D01*
X84057714Y-146572000D01*
X83772000Y-146572000D01*
X83629142Y-146643428D01*
X83557714Y-146714857D01*
X83486285Y-146857714D01*
X84986285Y-146929142D02*
X86129142Y-146929142D01*
X86772000Y-146143428D02*
X86843428Y-146072000D01*
X86986285Y-146000571D01*
X87343428Y-146000571D01*
X87486285Y-146072000D01*
X87557714Y-146143428D01*
X87629142Y-146286285D01*
X87629142Y-146429142D01*
X87557714Y-146643428D01*
X86700571Y-147500571D01*
X87629142Y-147500571D01*
X88557714Y-146000571D02*
X88700571Y-146000571D01*
X88843428Y-146072000D01*
X88914857Y-146143428D01*
X88986285Y-146286285D01*
X89057714Y-146572000D01*
X89057714Y-146929142D01*
X88986285Y-147214857D01*
X88914857Y-147357714D01*
X88843428Y-147429142D01*
X88700571Y-147500571D01*
X88557714Y-147500571D01*
X88414857Y-147429142D01*
X88343428Y-147357714D01*
X88272000Y-147214857D01*
X88200571Y-146929142D01*
X88200571Y-146572000D01*
X88272000Y-146286285D01*
X88343428Y-146143428D01*
X88414857Y-146072000D01*
X88557714Y-146000571D01*
D11*
X134156285Y-162222571D02*
X134156285Y-160722571D01*
X135013428Y-162222571D01*
X135013428Y-160722571D01*
X136013428Y-160722571D02*
X136299142Y-160722571D01*
X136442000Y-160794000D01*
X136584857Y-160936857D01*
X136656285Y-161222571D01*
X136656285Y-161722571D01*
X136584857Y-162008285D01*
X136442000Y-162151142D01*
X136299142Y-162222571D01*
X136013428Y-162222571D01*
X135870571Y-162151142D01*
X135727714Y-162008285D01*
X135656285Y-161722571D01*
X135656285Y-161222571D01*
X135727714Y-160936857D01*
X135870571Y-160794000D01*
X136013428Y-160722571D01*
X137084857Y-160722571D02*
X137942000Y-160722571D01*
X137513428Y-162222571D02*
X137513428Y-160722571D01*
X138442000Y-161436857D02*
X138942000Y-161436857D01*
X139156285Y-162222571D02*
X138442000Y-162222571D01*
X138442000Y-160722571D01*
X139156285Y-160722571D01*
X140870571Y-162151142D02*
X141084857Y-162222571D01*
X141442000Y-162222571D01*
X141584857Y-162151142D01*
X141656285Y-162079714D01*
X141727714Y-161936857D01*
X141727714Y-161794000D01*
X141656285Y-161651142D01*
X141584857Y-161579714D01*
X141442000Y-161508285D01*
X141156285Y-161436857D01*
X141013428Y-161365428D01*
X140942000Y-161294000D01*
X140870571Y-161151142D01*
X140870571Y-161008285D01*
X140942000Y-160865428D01*
X141013428Y-160794000D01*
X141156285Y-160722571D01*
X141513428Y-160722571D01*
X141727714Y-160794000D01*
X142370571Y-161436857D02*
X142870571Y-161436857D01*
X143084857Y-162222571D02*
X142370571Y-162222571D01*
X142370571Y-160722571D01*
X143084857Y-160722571D01*
X144442000Y-162222571D02*
X143727714Y-162222571D01*
X143727714Y-160722571D01*
X108589428Y-162222571D02*
X108589428Y-160722571D01*
X109089428Y-161794000D01*
X109589428Y-160722571D01*
X109589428Y-162222571D01*
X110303714Y-162222571D02*
X110303714Y-160722571D01*
X111018000Y-162222571D02*
X111018000Y-160722571D01*
X111375142Y-160722571D01*
X111589428Y-160794000D01*
X111732285Y-160936857D01*
X111803714Y-161079714D01*
X111875142Y-161365428D01*
X111875142Y-161579714D01*
X111803714Y-161865428D01*
X111732285Y-162008285D01*
X111589428Y-162151142D01*
X111375142Y-162222571D01*
X111018000Y-162222571D01*
X112518000Y-162222571D02*
X112518000Y-160722571D01*
X114375142Y-162222571D02*
X114375142Y-160722571D01*
X115089428Y-162222571D02*
X115089428Y-160722571D01*
X115946571Y-162222571D01*
X115946571Y-160722571D01*
D10*
X185674095Y-160536000D02*
X185578857Y-160488380D01*
X185436000Y-160488380D01*
X185293142Y-160536000D01*
X185197904Y-160631238D01*
X185150285Y-160726476D01*
X185102666Y-160916952D01*
X185102666Y-161059809D01*
X185150285Y-161250285D01*
X185197904Y-161345523D01*
X185293142Y-161440761D01*
X185436000Y-161488380D01*
X185531238Y-161488380D01*
X185674095Y-161440761D01*
X185721714Y-161393142D01*
X185721714Y-161059809D01*
X185531238Y-161059809D01*
X186150285Y-161488380D02*
X186150285Y-160488380D01*
X186721714Y-161488380D01*
X186721714Y-160488380D01*
X187197904Y-161488380D02*
X187197904Y-160488380D01*
X187436000Y-160488380D01*
X187578857Y-160536000D01*
X187674095Y-160631238D01*
X187721714Y-160726476D01*
X187769333Y-160916952D01*
X187769333Y-161059809D01*
X187721714Y-161250285D01*
X187674095Y-161345523D01*
X187578857Y-161440761D01*
X187436000Y-161488380D01*
X187197904Y-161488380D01*
X188738095Y-161107428D02*
X189500000Y-161107428D01*
X189119047Y-161488380D02*
X189119047Y-160726476D01*
X190500000Y-161488380D02*
X189928571Y-161488380D01*
X190214285Y-161488380D02*
X190214285Y-160488380D01*
X190119047Y-160631238D01*
X190023809Y-160726476D01*
X189928571Y-160774095D01*
X190880952Y-160583619D02*
X190928571Y-160536000D01*
X191023809Y-160488380D01*
X191261904Y-160488380D01*
X191357142Y-160536000D01*
X191404761Y-160583619D01*
X191452380Y-160678857D01*
X191452380Y-160774095D01*
X191404761Y-160916952D01*
X190833333Y-161488380D01*
X191452380Y-161488380D01*
X191738095Y-160488380D02*
X192071428Y-161488380D01*
X192404761Y-160488380D01*
D11*
X121305428Y-162222571D02*
X121305428Y-160722571D01*
X121805428Y-161794000D01*
X122305428Y-160722571D01*
X122305428Y-162222571D01*
X123019714Y-162222571D02*
X123019714Y-160722571D01*
X123734000Y-162222571D02*
X123734000Y-160722571D01*
X124091142Y-160722571D01*
X124305428Y-160794000D01*
X124448285Y-160936857D01*
X124519714Y-161079714D01*
X124591142Y-161365428D01*
X124591142Y-161579714D01*
X124519714Y-161865428D01*
X124448285Y-162008285D01*
X124305428Y-162151142D01*
X124091142Y-162222571D01*
X123734000Y-162222571D01*
X125234000Y-162222571D02*
X125234000Y-160722571D01*
X127376857Y-160722571D02*
X127662571Y-160722571D01*
X127805428Y-160794000D01*
X127948285Y-160936857D01*
X128019714Y-161222571D01*
X128019714Y-161722571D01*
X127948285Y-162008285D01*
X127805428Y-162151142D01*
X127662571Y-162222571D01*
X127376857Y-162222571D01*
X127234000Y-162151142D01*
X127091142Y-162008285D01*
X127019714Y-161722571D01*
X127019714Y-161222571D01*
X127091142Y-160936857D01*
X127234000Y-160794000D01*
X127376857Y-160722571D01*
X128662571Y-160722571D02*
X128662571Y-161936857D01*
X128734000Y-162079714D01*
X128805428Y-162151142D01*
X128948285Y-162222571D01*
X129234000Y-162222571D01*
X129376857Y-162151142D01*
X129448285Y-162079714D01*
X129519714Y-161936857D01*
X129519714Y-160722571D01*
X130019714Y-160722571D02*
X130876857Y-160722571D01*
X130448285Y-162222571D02*
X130448285Y-160722571D01*
D12*
X95310000Y-162730571D02*
X95310000Y-161230571D01*
X95810000Y-162302000D01*
X96310000Y-161230571D01*
X96310000Y-162730571D01*
X97310000Y-161230571D02*
X97595714Y-161230571D01*
X97738571Y-161302000D01*
X97881428Y-161444857D01*
X97952857Y-161730571D01*
X97952857Y-162230571D01*
X97881428Y-162516285D01*
X97738571Y-162659142D01*
X97595714Y-162730571D01*
X97310000Y-162730571D01*
X97167142Y-162659142D01*
X97024285Y-162516285D01*
X96952857Y-162230571D01*
X96952857Y-161730571D01*
X97024285Y-161444857D01*
X97167142Y-161302000D01*
X97310000Y-161230571D01*
X98595714Y-162730571D02*
X98595714Y-161230571D01*
X98952857Y-161230571D01*
X99167142Y-161302000D01*
X99310000Y-161444857D01*
X99381428Y-161587714D01*
X99452857Y-161873428D01*
X99452857Y-162087714D01*
X99381428Y-162373428D01*
X99310000Y-162516285D01*
X99167142Y-162659142D01*
X98952857Y-162730571D01*
X98595714Y-162730571D01*
X101238571Y-162730571D02*
X101238571Y-161230571D01*
X101952857Y-162730571D02*
X101952857Y-161230571D01*
X102810000Y-162730571D01*
X102810000Y-161230571D01*
X71025714Y-164762571D02*
X71025714Y-163262571D01*
X71882857Y-164762571D02*
X71240000Y-163905428D01*
X71882857Y-163262571D02*
X71025714Y-164119714D01*
X72525714Y-163976857D02*
X73025714Y-163976857D01*
X73240000Y-164762571D02*
X72525714Y-164762571D01*
X72525714Y-163262571D01*
X73240000Y-163262571D01*
X74168571Y-164048285D02*
X74168571Y-164762571D01*
X73668571Y-163262571D02*
X74168571Y-164048285D01*
X74668571Y-163262571D01*
X75668571Y-163976857D02*
X75882857Y-164048285D01*
X75954285Y-164119714D01*
X76025714Y-164262571D01*
X76025714Y-164476857D01*
X75954285Y-164619714D01*
X75882857Y-164691142D01*
X75740000Y-164762571D01*
X75168571Y-164762571D01*
X75168571Y-163262571D01*
X75668571Y-163262571D01*
X75811428Y-163334000D01*
X75882857Y-163405428D01*
X75954285Y-163548285D01*
X75954285Y-163691142D01*
X75882857Y-163834000D01*
X75811428Y-163905428D01*
X75668571Y-163976857D01*
X75168571Y-163976857D01*
X76668571Y-163976857D02*
X77168571Y-163976857D01*
X77382857Y-164762571D02*
X76668571Y-164762571D01*
X76668571Y-163262571D01*
X77382857Y-163262571D01*
X78025714Y-164762571D02*
X78025714Y-163262571D01*
X78382857Y-163262571D01*
X78597142Y-163334000D01*
X78740000Y-163476857D01*
X78811428Y-163619714D01*
X78882857Y-163905428D01*
X78882857Y-164119714D01*
X78811428Y-164405428D01*
X78740000Y-164548285D01*
X78597142Y-164691142D01*
X78382857Y-164762571D01*
X78025714Y-164762571D01*
X80668571Y-164762571D02*
X80668571Y-163262571D01*
X81382857Y-164762571D02*
X81382857Y-163262571D01*
X82240000Y-164762571D01*
X82240000Y-163262571D01*
X82954285Y-164762571D02*
X82954285Y-163262571D01*
X83525714Y-163262571D01*
X83668571Y-163334000D01*
X83740000Y-163405428D01*
X83811428Y-163548285D01*
X83811428Y-163762571D01*
X83740000Y-163905428D01*
X83668571Y-163976857D01*
X83525714Y-164048285D01*
X82954285Y-164048285D01*
X84454285Y-163262571D02*
X84454285Y-164476857D01*
X84525714Y-164619714D01*
X84597142Y-164691142D01*
X84740000Y-164762571D01*
X85025714Y-164762571D01*
X85168571Y-164691142D01*
X85240000Y-164619714D01*
X85311428Y-164476857D01*
X85311428Y-163262571D01*
X85811428Y-163262571D02*
X86668571Y-163262571D01*
X86240000Y-164762571D02*
X86240000Y-163262571D01*
D14*
%TO.C,A2*%
X104902000Y-120142000D02*
X107442000Y-120142000D01*
X107442000Y-120142000D02*
X107442000Y-117472000D01*
X104902000Y-117472000D02*
X66672000Y-117472000D01*
X110112000Y-117472000D02*
X107442000Y-117472000D01*
X107442000Y-132842000D02*
X107442000Y-135512000D01*
X107442000Y-132842000D02*
X69342000Y-132842000D01*
X69342000Y-132842000D02*
X69342000Y-135512000D01*
X104902000Y-120142000D02*
X104902000Y-117472000D01*
X104902000Y-120142000D02*
X69342000Y-120142000D01*
X69342000Y-120142000D02*
X69342000Y-117472000D01*
X66672000Y-117472000D02*
X66672000Y-135512000D01*
X66672000Y-135512000D02*
X110112000Y-135512000D01*
X110112000Y-135512000D02*
X110112000Y-117472000D01*
%TO.C,J17*%
X103826000Y-153670000D02*
X106486000Y-153670000D01*
X103826000Y-153670000D02*
X103826000Y-156270000D01*
X103826000Y-156270000D02*
X106486000Y-156270000D01*
X106486000Y-153670000D02*
X106486000Y-156270000D01*
X106486000Y-151070000D02*
X106486000Y-152400000D01*
X105156000Y-151070000D02*
X106486000Y-151070000D01*
%TO.C,J16*%
X99762000Y-153670000D02*
X102422000Y-153670000D01*
X99762000Y-153670000D02*
X99762000Y-156270000D01*
X99762000Y-156270000D02*
X102422000Y-156270000D01*
X102422000Y-153670000D02*
X102422000Y-156270000D01*
X102422000Y-151070000D02*
X102422000Y-152400000D01*
X101092000Y-151070000D02*
X102422000Y-151070000D01*
%TO.C,JP1*%
X115948000Y-138892000D02*
G75*
G02*
X116648000Y-138192000I700000J0D01*
G01*
X116648000Y-140192000D02*
G75*
G02*
X115948000Y-139492000I0J700000D01*
G01*
X118748000Y-139492000D02*
G75*
G02*
X118048000Y-140192000I-700000J0D01*
G01*
X118048000Y-138192000D02*
G75*
G02*
X118748000Y-138892000I0J-700000D01*
G01*
X115948000Y-139492000D02*
X115948000Y-138892000D01*
X118048000Y-140192000D02*
X116648000Y-140192000D01*
X118748000Y-138892000D02*
X118748000Y-139492000D01*
X116648000Y-138192000D02*
X118048000Y-138192000D01*
%TO.C,J15*%
X180534000Y-159826000D02*
X183194000Y-159826000D01*
X180534000Y-159706000D02*
X180534000Y-159826000D01*
X183194000Y-159706000D02*
X183194000Y-159826000D01*
X183194000Y-157166000D02*
X183194000Y-158496000D01*
X181864000Y-157166000D02*
X183194000Y-157166000D01*
%TO.C,J12*%
X165294000Y-159826000D02*
X167954000Y-159826000D01*
X165294000Y-159706000D02*
X165294000Y-159826000D01*
X167954000Y-159706000D02*
X167954000Y-159826000D01*
X167954000Y-157166000D02*
X167954000Y-158496000D01*
X166624000Y-157166000D02*
X167954000Y-157166000D01*
%TO.C,J11*%
X170374000Y-159826000D02*
X173034000Y-159826000D01*
X170374000Y-159706000D02*
X170374000Y-159826000D01*
X173034000Y-159706000D02*
X173034000Y-159826000D01*
X173034000Y-157166000D02*
X173034000Y-158496000D01*
X171704000Y-157166000D02*
X173034000Y-157166000D01*
%TO.C,J10*%
X160214000Y-159826000D02*
X162874000Y-159826000D01*
X160214000Y-159706000D02*
X160214000Y-159826000D01*
X162874000Y-159706000D02*
X162874000Y-159826000D01*
X162874000Y-157166000D02*
X162874000Y-158496000D01*
X161544000Y-157166000D02*
X162874000Y-157166000D01*
%TO.C,J9*%
X175454000Y-159826000D02*
X178114000Y-159826000D01*
X175454000Y-159706000D02*
X175454000Y-159826000D01*
X178114000Y-159706000D02*
X178114000Y-159826000D01*
X178114000Y-157166000D02*
X178114000Y-158496000D01*
X176784000Y-157166000D02*
X178114000Y-157166000D01*
%TO.C,J8*%
X155134000Y-159826000D02*
X157794000Y-159826000D01*
X155134000Y-159706000D02*
X155134000Y-159826000D01*
X157794000Y-159706000D02*
X157794000Y-159826000D01*
X157794000Y-157166000D02*
X157794000Y-158496000D01*
X156464000Y-157166000D02*
X157794000Y-157166000D01*
%TO.C,J7*%
X150054000Y-159826000D02*
X152714000Y-159826000D01*
X150054000Y-159706000D02*
X150054000Y-159826000D01*
X152714000Y-159706000D02*
X152714000Y-159826000D01*
X152714000Y-157166000D02*
X152714000Y-158496000D01*
X151384000Y-157166000D02*
X152714000Y-157166000D01*
%TO.C,J6*%
X144974000Y-159826000D02*
X147634000Y-159826000D01*
X144974000Y-159706000D02*
X144974000Y-159826000D01*
X147634000Y-159706000D02*
X147634000Y-159826000D01*
X147634000Y-157166000D02*
X147634000Y-158496000D01*
X146304000Y-157166000D02*
X147634000Y-157166000D01*
%TO.C,J14*%
X67250000Y-159512000D02*
X67250000Y-158182000D01*
X67250000Y-158182000D02*
X68580000Y-158182000D01*
X69850000Y-158182000D02*
X92770000Y-158182000D01*
X92770000Y-160842000D02*
X92770000Y-158182000D01*
X69850000Y-160842000D02*
X92770000Y-160842000D01*
X69850000Y-160842000D02*
X69850000Y-158182000D01*
%TO.C,J2*%
X65980000Y-156464000D02*
X65980000Y-155134000D01*
X65980000Y-155134000D02*
X67310000Y-155134000D01*
X68580000Y-155134000D02*
X91500000Y-155134000D01*
X91500000Y-157794000D02*
X91500000Y-155134000D01*
X68580000Y-157794000D02*
X91500000Y-157794000D01*
X68580000Y-157794000D02*
X68580000Y-155134000D01*
%TO.C,A1*%
X116586000Y-132842000D02*
X114046000Y-132842000D01*
X114046000Y-132842000D02*
X114046000Y-135512000D01*
X116586000Y-135512000D02*
X154816000Y-135512000D01*
X111376000Y-135512000D02*
X114046000Y-135512000D01*
X114046000Y-120142000D02*
X114046000Y-117472000D01*
X114046000Y-120142000D02*
X152146000Y-120142000D01*
X152146000Y-120142000D02*
X152146000Y-117472000D01*
X116586000Y-132842000D02*
X116586000Y-135512000D01*
X116586000Y-132842000D02*
X152146000Y-132842000D01*
X152146000Y-132842000D02*
X152146000Y-135512000D01*
X154816000Y-135512000D02*
X154816000Y-117472000D01*
X154816000Y-117472000D02*
X111376000Y-117472000D01*
X111376000Y-117472000D02*
X111376000Y-135512000D01*
%TO.C,U1*%
X155762000Y-146574000D02*
X155762000Y-145324000D01*
X155762000Y-145324000D02*
X145482000Y-145324000D01*
X145482000Y-145324000D02*
X145482000Y-149824000D01*
X145482000Y-149824000D02*
X155762000Y-149824000D01*
X155762000Y-149824000D02*
X155762000Y-148574000D01*
X155822000Y-142324000D02*
X145422000Y-142324000D01*
X145422000Y-142324000D02*
X145422000Y-152824000D01*
X145422000Y-152824000D02*
X155822000Y-152824000D01*
X155822000Y-152824000D02*
X155822000Y-142324000D01*
X155762000Y-148574000D02*
G75*
G02*
X155762000Y-146574000I0J1000000D01*
G01*
%TO.C,U4*%
X178114000Y-146574000D02*
X178114000Y-145324000D01*
X178114000Y-145324000D02*
X160214000Y-145324000D01*
X160214000Y-145324000D02*
X160214000Y-149824000D01*
X160214000Y-149824000D02*
X178114000Y-149824000D01*
X178114000Y-149824000D02*
X178114000Y-148574000D01*
X178174000Y-142324000D02*
X160154000Y-142324000D01*
X160154000Y-142324000D02*
X160154000Y-152824000D01*
X160154000Y-152824000D02*
X178174000Y-152824000D01*
X178174000Y-152824000D02*
X178174000Y-142324000D01*
X178114000Y-148574000D02*
G75*
G02*
X178114000Y-146574000I0J1000000D01*
G01*
%TO.C,R8*%
X181332000Y-150844000D02*
X181002000Y-150844000D01*
X181002000Y-150844000D02*
X181002000Y-144304000D01*
X181002000Y-144304000D02*
X181332000Y-144304000D01*
X183412000Y-150844000D02*
X183742000Y-150844000D01*
X183742000Y-150844000D02*
X183742000Y-144304000D01*
X183742000Y-144304000D02*
X183412000Y-144304000D01*
%TO.C,C5*%
X165912000Y-138838000D02*
X173352000Y-138838000D01*
X165912000Y-141578000D02*
X173352000Y-141578000D01*
X165912000Y-138838000D02*
X165912000Y-141578000D01*
X173352000Y-138838000D02*
X173352000Y-141578000D01*
%TO.C,U6*%
X193508000Y-148114000D02*
X203748000Y-148114000D01*
X193508000Y-152755000D02*
X203748000Y-152755000D01*
X193508000Y-148114000D02*
X193508000Y-152755000D01*
X203748000Y-148114000D02*
X203748000Y-152755000D01*
X193508000Y-149624000D02*
X203748000Y-149624000D01*
X196778000Y-148114000D02*
X196778000Y-149624000D01*
X200479000Y-148114000D02*
X200479000Y-149624000D01*
%TO.C,U3*%
X105858000Y-142986000D02*
X105858000Y-144636000D01*
X105858000Y-144636000D02*
X111058000Y-144636000D01*
X111058000Y-144636000D02*
X111058000Y-139336000D01*
X111058000Y-139336000D02*
X105858000Y-139336000D01*
X105858000Y-139336000D02*
X105858000Y-140986000D01*
X105858000Y-140986000D02*
G75*
G02*
X105858000Y-142986000I0J-1000000D01*
G01*
%TO.C,U2*%
X141030000Y-146574000D02*
X141030000Y-145324000D01*
X141030000Y-145324000D02*
X130750000Y-145324000D01*
X130750000Y-145324000D02*
X130750000Y-149824000D01*
X130750000Y-149824000D02*
X141030000Y-149824000D01*
X141030000Y-149824000D02*
X141030000Y-148574000D01*
X141090000Y-142324000D02*
X130690000Y-142324000D01*
X130690000Y-142324000D02*
X130690000Y-152824000D01*
X130690000Y-152824000D02*
X141090000Y-152824000D01*
X141090000Y-152824000D02*
X141090000Y-142324000D01*
X141030000Y-148574000D02*
G75*
G02*
X141030000Y-146574000I0J1000000D01*
G01*
%TO.C,R11*%
X210336000Y-142780000D02*
X210666000Y-142780000D01*
X210666000Y-142780000D02*
X210666000Y-149320000D01*
X210666000Y-149320000D02*
X210336000Y-149320000D01*
X208256000Y-142780000D02*
X207926000Y-142780000D01*
X207926000Y-142780000D02*
X207926000Y-149320000D01*
X207926000Y-149320000D02*
X208256000Y-149320000D01*
%TO.C,R10*%
X118896000Y-144304000D02*
X119226000Y-144304000D01*
X119226000Y-144304000D02*
X119226000Y-150844000D01*
X119226000Y-150844000D02*
X118896000Y-150844000D01*
X116816000Y-144304000D02*
X116486000Y-144304000D01*
X116486000Y-144304000D02*
X116486000Y-150844000D01*
X116486000Y-150844000D02*
X116816000Y-150844000D01*
%TO.C,R9*%
X113260000Y-150844000D02*
X112930000Y-150844000D01*
X112930000Y-150844000D02*
X112930000Y-144304000D01*
X112930000Y-144304000D02*
X113260000Y-144304000D01*
X115340000Y-150844000D02*
X115670000Y-150844000D01*
X115670000Y-150844000D02*
X115670000Y-144304000D01*
X115670000Y-144304000D02*
X115340000Y-144304000D01*
%TO.C,R7*%
X186460000Y-144304000D02*
X186790000Y-144304000D01*
X186790000Y-144304000D02*
X186790000Y-150844000D01*
X186790000Y-150844000D02*
X186460000Y-150844000D01*
X184380000Y-144304000D02*
X184050000Y-144304000D01*
X184050000Y-144304000D02*
X184050000Y-150844000D01*
X184050000Y-150844000D02*
X184380000Y-150844000D01*
%TO.C,R6*%
X189508000Y-144304000D02*
X189838000Y-144304000D01*
X189838000Y-144304000D02*
X189838000Y-150844000D01*
X189838000Y-150844000D02*
X189508000Y-150844000D01*
X187428000Y-144304000D02*
X187098000Y-144304000D01*
X187098000Y-144304000D02*
X187098000Y-150844000D01*
X187098000Y-150844000D02*
X187428000Y-150844000D01*
%TO.C,R5*%
X104164000Y-138716000D02*
X104494000Y-138716000D01*
X104494000Y-138716000D02*
X104494000Y-145256000D01*
X104494000Y-145256000D02*
X104164000Y-145256000D01*
X102084000Y-138716000D02*
X101754000Y-138716000D01*
X101754000Y-138716000D02*
X101754000Y-145256000D01*
X101754000Y-145256000D02*
X102084000Y-145256000D01*
%TO.C,R4*%
X120372000Y-150844000D02*
X120042000Y-150844000D01*
X120042000Y-150844000D02*
X120042000Y-144304000D01*
X120042000Y-144304000D02*
X120372000Y-144304000D01*
X122452000Y-150844000D02*
X122782000Y-150844000D01*
X122782000Y-150844000D02*
X122782000Y-144304000D01*
X122782000Y-144304000D02*
X122452000Y-144304000D01*
%TO.C,R3*%
X123928000Y-150844000D02*
X123598000Y-150844000D01*
X123598000Y-150844000D02*
X123598000Y-144304000D01*
X123598000Y-144304000D02*
X123928000Y-144304000D01*
X126008000Y-150844000D02*
X126338000Y-150844000D01*
X126338000Y-150844000D02*
X126338000Y-144304000D01*
X126338000Y-144304000D02*
X126008000Y-144304000D01*
%TO.C,R2*%
X127484000Y-150844000D02*
X127154000Y-150844000D01*
X127154000Y-150844000D02*
X127154000Y-144304000D01*
X127154000Y-144304000D02*
X127484000Y-144304000D01*
X129564000Y-150844000D02*
X129894000Y-150844000D01*
X129894000Y-150844000D02*
X129894000Y-144304000D01*
X129894000Y-144304000D02*
X129564000Y-144304000D01*
%TO.C,R1*%
X109696000Y-149884000D02*
X109696000Y-150214000D01*
X109696000Y-150214000D02*
X103156000Y-150214000D01*
X103156000Y-150214000D02*
X103156000Y-149884000D01*
X109696000Y-147804000D02*
X109696000Y-147474000D01*
X109696000Y-147474000D02*
X103156000Y-147474000D01*
X103156000Y-147474000D02*
X103156000Y-147804000D01*
%TO.C,J13*%
X101854000Y-157674000D02*
X101854000Y-160334000D01*
X101854000Y-157674000D02*
X94174000Y-157674000D01*
X94174000Y-157674000D02*
X94174000Y-160334000D01*
X101854000Y-160334000D02*
X94174000Y-160334000D01*
X104454000Y-160334000D02*
X103124000Y-160334000D01*
X104454000Y-159004000D02*
X104454000Y-160334000D01*
%TO.C,J5*%
X188214000Y-157166000D02*
X188214000Y-159826000D01*
X188214000Y-157166000D02*
X185614000Y-157166000D01*
X185614000Y-157166000D02*
X185614000Y-159826000D01*
X188214000Y-159826000D02*
X185614000Y-159826000D01*
X190814000Y-159826000D02*
X189484000Y-159826000D01*
X190814000Y-158496000D02*
X190814000Y-159826000D01*
%TO.C,J4*%
X130810000Y-157166000D02*
X130810000Y-159826000D01*
X130810000Y-157166000D02*
X120590000Y-157166000D01*
X120590000Y-157166000D02*
X120590000Y-159826000D01*
X130810000Y-159826000D02*
X120590000Y-159826000D01*
X133410000Y-159826000D02*
X132080000Y-159826000D01*
X133410000Y-158496000D02*
X133410000Y-159826000D01*
%TO.C,J3*%
X137414000Y-159826000D02*
X137414000Y-157166000D01*
X137414000Y-159826000D02*
X142554000Y-159826000D01*
X142554000Y-159826000D02*
X142554000Y-157166000D01*
X137414000Y-157166000D02*
X142554000Y-157166000D01*
X134814000Y-157166000D02*
X136144000Y-157166000D01*
X134814000Y-158496000D02*
X134814000Y-157166000D01*
%TO.C,J1*%
X116586000Y-157166000D02*
X116586000Y-159826000D01*
X116586000Y-157166000D02*
X106366000Y-157166000D01*
X106366000Y-157166000D02*
X106366000Y-159826000D01*
X116586000Y-159826000D02*
X106366000Y-159826000D01*
X119186000Y-159826000D02*
X117856000Y-159826000D01*
X119186000Y-158496000D02*
X119186000Y-159826000D01*
%TO.C,D3*%
X211542000Y-154940000D02*
G75*
G03*
X211542000Y-154940000I-2500000J0D01*
G01*
X211602000Y-156485000D02*
X211602000Y-153395000D01*
X206052000Y-154940462D02*
G75*
G02*
X211602000Y-153395170I2990000J462D01*
G01*
X206052000Y-154939538D02*
G75*
G03*
X211602000Y-156484830I2990000J-462D01*
G01*
%TO.C,D2*%
X195908000Y-153470000D02*
X195908000Y-156410000D01*
X195908000Y-156410000D02*
X201348000Y-156410000D01*
X201348000Y-156410000D02*
X201348000Y-153470000D01*
X201348000Y-153470000D02*
X195908000Y-153470000D01*
X194888000Y-154940000D02*
X195908000Y-154940000D01*
X202368000Y-154940000D02*
X201348000Y-154940000D01*
X196808000Y-153470000D02*
X196808000Y-156410000D01*
X196928000Y-153470000D02*
X196928000Y-156410000D01*
X196688000Y-153470000D02*
X196688000Y-156410000D01*
%TO.C,C4*%
X204370000Y-150572000D02*
X204370000Y-143132000D01*
X207110000Y-150572000D02*
X207110000Y-143132000D01*
X204370000Y-150572000D02*
X207110000Y-150572000D01*
X204370000Y-143132000D02*
X207110000Y-143132000D01*
%TO.C,C3*%
X190146000Y-150572000D02*
X190146000Y-143132000D01*
X192886000Y-150572000D02*
X192886000Y-143132000D01*
X190146000Y-150572000D02*
X192886000Y-150572000D01*
X190146000Y-143132000D02*
X192886000Y-143132000D01*
%TO.C,C2*%
X141886000Y-144148000D02*
X144626000Y-144148000D01*
X141886000Y-151588000D02*
X144626000Y-151588000D01*
X144626000Y-151588000D02*
X144626000Y-144148000D01*
X141886000Y-151588000D02*
X141886000Y-144148000D01*
%TO.C,C1*%
X156618000Y-151080000D02*
X156618000Y-143640000D01*
X159358000Y-151080000D02*
X159358000Y-143640000D01*
X156618000Y-151080000D02*
X159358000Y-151080000D01*
X156618000Y-143640000D02*
X159358000Y-143640000D01*
%TD*%
%TO.C,A2*%
D10*
X67357714Y-116498666D02*
X67833904Y-116498666D01*
X67262476Y-116784380D02*
X67595809Y-115784380D01*
X67929142Y-116784380D01*
X68214857Y-115879619D02*
X68262476Y-115832000D01*
X68357714Y-115784380D01*
X68595809Y-115784380D01*
X68691047Y-115832000D01*
X68738666Y-115879619D01*
X68786285Y-115974857D01*
X68786285Y-116070095D01*
X68738666Y-116212952D01*
X68167238Y-116784380D01*
X68786285Y-116784380D01*
%TO.C,J17*%
X99266476Y-149312380D02*
X99266476Y-150026666D01*
X99218857Y-150169523D01*
X99123619Y-150264761D01*
X98980761Y-150312380D01*
X98885523Y-150312380D01*
X100266476Y-150312380D02*
X99695047Y-150312380D01*
X99980761Y-150312380D02*
X99980761Y-149312380D01*
X99885523Y-149455238D01*
X99790285Y-149550476D01*
X99695047Y-149598095D01*
X100599809Y-149312380D02*
X101266476Y-149312380D01*
X100837904Y-150312380D01*
%TO.C,J16*%
X99266476Y-147788380D02*
X99266476Y-148502666D01*
X99218857Y-148645523D01*
X99123619Y-148740761D01*
X98980761Y-148788380D01*
X98885523Y-148788380D01*
X100266476Y-148788380D02*
X99695047Y-148788380D01*
X99980761Y-148788380D02*
X99980761Y-147788380D01*
X99885523Y-147931238D01*
X99790285Y-148026476D01*
X99695047Y-148074095D01*
X101123619Y-147788380D02*
X100933142Y-147788380D01*
X100837904Y-147836000D01*
X100790285Y-147883619D01*
X100695047Y-148026476D01*
X100647428Y-148216952D01*
X100647428Y-148597904D01*
X100695047Y-148693142D01*
X100742666Y-148740761D01*
X100837904Y-148788380D01*
X101028380Y-148788380D01*
X101123619Y-148740761D01*
X101171238Y-148693142D01*
X101218857Y-148597904D01*
X101218857Y-148359809D01*
X101171238Y-148264571D01*
X101123619Y-148216952D01*
X101028380Y-148169333D01*
X100837904Y-148169333D01*
X100742666Y-148216952D01*
X100695047Y-148264571D01*
X100647428Y-148359809D01*
%TO.C,H4*%
X60198095Y-113228380D02*
X60198095Y-112228380D01*
X60198095Y-112704571D02*
X60769523Y-112704571D01*
X60769523Y-113228380D02*
X60769523Y-112228380D01*
X61674285Y-112561714D02*
X61674285Y-113228380D01*
X61436190Y-112180761D02*
X61198095Y-112895047D01*
X61817142Y-112895047D01*
%TO.C,H3*%
X155702095Y-113228380D02*
X155702095Y-112228380D01*
X155702095Y-112704571D02*
X156273523Y-112704571D01*
X156273523Y-113228380D02*
X156273523Y-112228380D01*
X156654476Y-112228380D02*
X157273523Y-112228380D01*
X156940190Y-112609333D01*
X157083047Y-112609333D01*
X157178285Y-112656952D01*
X157225904Y-112704571D01*
X157273523Y-112799809D01*
X157273523Y-113037904D01*
X157225904Y-113133142D01*
X157178285Y-113180761D01*
X157083047Y-113228380D01*
X156797333Y-113228380D01*
X156702095Y-113180761D01*
X156654476Y-113133142D01*
%TO.C,H2*%
X201930095Y-164028380D02*
X201930095Y-163028380D01*
X201930095Y-163504571D02*
X202501523Y-163504571D01*
X202501523Y-164028380D02*
X202501523Y-163028380D01*
X202930095Y-163123619D02*
X202977714Y-163076000D01*
X203072952Y-163028380D01*
X203311047Y-163028380D01*
X203406285Y-163076000D01*
X203453904Y-163123619D01*
X203501523Y-163218857D01*
X203501523Y-163314095D01*
X203453904Y-163456952D01*
X202882476Y-164028380D01*
X203501523Y-164028380D01*
%TO.C,H1*%
X199898095Y-139136380D02*
X199898095Y-138136380D01*
X199898095Y-138612571D02*
X200469523Y-138612571D01*
X200469523Y-139136380D02*
X200469523Y-138136380D01*
X201469523Y-139136380D02*
X200898095Y-139136380D01*
X201183809Y-139136380D02*
X201183809Y-138136380D01*
X201088571Y-138279238D01*
X200993333Y-138374476D01*
X200898095Y-138422095D01*
%TO.C,JP1*%
X116514666Y-136844380D02*
X116514666Y-137558666D01*
X116467047Y-137701523D01*
X116371809Y-137796761D01*
X116228952Y-137844380D01*
X116133714Y-137844380D01*
X116990857Y-137844380D02*
X116990857Y-136844380D01*
X117371809Y-136844380D01*
X117467047Y-136892000D01*
X117514666Y-136939619D01*
X117562285Y-137034857D01*
X117562285Y-137177714D01*
X117514666Y-137272952D01*
X117467047Y-137320571D01*
X117371809Y-137368190D01*
X116990857Y-137368190D01*
X118514666Y-137844380D02*
X117943238Y-137844380D01*
X118228952Y-137844380D02*
X118228952Y-136844380D01*
X118133714Y-136987238D01*
X118038476Y-137082476D01*
X117943238Y-137130095D01*
%TO.C,J15*%
X181054476Y-155178380D02*
X181054476Y-155892666D01*
X181006857Y-156035523D01*
X180911619Y-156130761D01*
X180768761Y-156178380D01*
X180673523Y-156178380D01*
X182054476Y-156178380D02*
X181483047Y-156178380D01*
X181768761Y-156178380D02*
X181768761Y-155178380D01*
X181673523Y-155321238D01*
X181578285Y-155416476D01*
X181483047Y-155464095D01*
X182959238Y-155178380D02*
X182483047Y-155178380D01*
X182435428Y-155654571D01*
X182483047Y-155606952D01*
X182578285Y-155559333D01*
X182816380Y-155559333D01*
X182911619Y-155606952D01*
X182959238Y-155654571D01*
X183006857Y-155749809D01*
X183006857Y-155987904D01*
X182959238Y-156083142D01*
X182911619Y-156130761D01*
X182816380Y-156178380D01*
X182578285Y-156178380D01*
X182483047Y-156130761D01*
X182435428Y-156083142D01*
%TO.C,J12*%
X165814476Y-155178380D02*
X165814476Y-155892666D01*
X165766857Y-156035523D01*
X165671619Y-156130761D01*
X165528761Y-156178380D01*
X165433523Y-156178380D01*
X166814476Y-156178380D02*
X166243047Y-156178380D01*
X166528761Y-156178380D02*
X166528761Y-155178380D01*
X166433523Y-155321238D01*
X166338285Y-155416476D01*
X166243047Y-155464095D01*
X167195428Y-155273619D02*
X167243047Y-155226000D01*
X167338285Y-155178380D01*
X167576380Y-155178380D01*
X167671619Y-155226000D01*
X167719238Y-155273619D01*
X167766857Y-155368857D01*
X167766857Y-155464095D01*
X167719238Y-155606952D01*
X167147809Y-156178380D01*
X167766857Y-156178380D01*
%TO.C,J11*%
X170894476Y-155178380D02*
X170894476Y-155892666D01*
X170846857Y-156035523D01*
X170751619Y-156130761D01*
X170608761Y-156178380D01*
X170513523Y-156178380D01*
X171894476Y-156178380D02*
X171323047Y-156178380D01*
X171608761Y-156178380D02*
X171608761Y-155178380D01*
X171513523Y-155321238D01*
X171418285Y-155416476D01*
X171323047Y-155464095D01*
X172846857Y-156178380D02*
X172275428Y-156178380D01*
X172561142Y-156178380D02*
X172561142Y-155178380D01*
X172465904Y-155321238D01*
X172370666Y-155416476D01*
X172275428Y-155464095D01*
%TO.C,J10*%
X160734476Y-155178380D02*
X160734476Y-155892666D01*
X160686857Y-156035523D01*
X160591619Y-156130761D01*
X160448761Y-156178380D01*
X160353523Y-156178380D01*
X161734476Y-156178380D02*
X161163047Y-156178380D01*
X161448761Y-156178380D02*
X161448761Y-155178380D01*
X161353523Y-155321238D01*
X161258285Y-155416476D01*
X161163047Y-155464095D01*
X162353523Y-155178380D02*
X162448761Y-155178380D01*
X162544000Y-155226000D01*
X162591619Y-155273619D01*
X162639238Y-155368857D01*
X162686857Y-155559333D01*
X162686857Y-155797428D01*
X162639238Y-155987904D01*
X162591619Y-156083142D01*
X162544000Y-156130761D01*
X162448761Y-156178380D01*
X162353523Y-156178380D01*
X162258285Y-156130761D01*
X162210666Y-156083142D01*
X162163047Y-155987904D01*
X162115428Y-155797428D01*
X162115428Y-155559333D01*
X162163047Y-155368857D01*
X162210666Y-155273619D01*
X162258285Y-155226000D01*
X162353523Y-155178380D01*
%TO.C,J9*%
X176450666Y-155178380D02*
X176450666Y-155892666D01*
X176403047Y-156035523D01*
X176307809Y-156130761D01*
X176164952Y-156178380D01*
X176069714Y-156178380D01*
X176974476Y-156178380D02*
X177164952Y-156178380D01*
X177260190Y-156130761D01*
X177307809Y-156083142D01*
X177403047Y-155940285D01*
X177450666Y-155749809D01*
X177450666Y-155368857D01*
X177403047Y-155273619D01*
X177355428Y-155226000D01*
X177260190Y-155178380D01*
X177069714Y-155178380D01*
X176974476Y-155226000D01*
X176926857Y-155273619D01*
X176879238Y-155368857D01*
X176879238Y-155606952D01*
X176926857Y-155702190D01*
X176974476Y-155749809D01*
X177069714Y-155797428D01*
X177260190Y-155797428D01*
X177355428Y-155749809D01*
X177403047Y-155702190D01*
X177450666Y-155606952D01*
%TO.C,J8*%
X156130666Y-155178380D02*
X156130666Y-155892666D01*
X156083047Y-156035523D01*
X155987809Y-156130761D01*
X155844952Y-156178380D01*
X155749714Y-156178380D01*
X156749714Y-155606952D02*
X156654476Y-155559333D01*
X156606857Y-155511714D01*
X156559238Y-155416476D01*
X156559238Y-155368857D01*
X156606857Y-155273619D01*
X156654476Y-155226000D01*
X156749714Y-155178380D01*
X156940190Y-155178380D01*
X157035428Y-155226000D01*
X157083047Y-155273619D01*
X157130666Y-155368857D01*
X157130666Y-155416476D01*
X157083047Y-155511714D01*
X157035428Y-155559333D01*
X156940190Y-155606952D01*
X156749714Y-155606952D01*
X156654476Y-155654571D01*
X156606857Y-155702190D01*
X156559238Y-155797428D01*
X156559238Y-155987904D01*
X156606857Y-156083142D01*
X156654476Y-156130761D01*
X156749714Y-156178380D01*
X156940190Y-156178380D01*
X157035428Y-156130761D01*
X157083047Y-156083142D01*
X157130666Y-155987904D01*
X157130666Y-155797428D01*
X157083047Y-155702190D01*
X157035428Y-155654571D01*
X156940190Y-155606952D01*
%TO.C,J7*%
X151050666Y-155178380D02*
X151050666Y-155892666D01*
X151003047Y-156035523D01*
X150907809Y-156130761D01*
X150764952Y-156178380D01*
X150669714Y-156178380D01*
X151431619Y-155178380D02*
X152098285Y-155178380D01*
X151669714Y-156178380D01*
%TO.C,J6*%
X145970666Y-155178380D02*
X145970666Y-155892666D01*
X145923047Y-156035523D01*
X145827809Y-156130761D01*
X145684952Y-156178380D01*
X145589714Y-156178380D01*
X146875428Y-155178380D02*
X146684952Y-155178380D01*
X146589714Y-155226000D01*
X146542095Y-155273619D01*
X146446857Y-155416476D01*
X146399238Y-155606952D01*
X146399238Y-155987904D01*
X146446857Y-156083142D01*
X146494476Y-156130761D01*
X146589714Y-156178380D01*
X146780190Y-156178380D01*
X146875428Y-156130761D01*
X146923047Y-156083142D01*
X146970666Y-155987904D01*
X146970666Y-155749809D01*
X146923047Y-155654571D01*
X146875428Y-155606952D01*
X146780190Y-155559333D01*
X146589714Y-155559333D01*
X146494476Y-155606952D01*
X146446857Y-155654571D01*
X146399238Y-155749809D01*
%TO.C,J14*%
X64214476Y-159472380D02*
X64214476Y-160186666D01*
X64166857Y-160329523D01*
X64071619Y-160424761D01*
X63928761Y-160472380D01*
X63833523Y-160472380D01*
X65214476Y-160472380D02*
X64643047Y-160472380D01*
X64928761Y-160472380D02*
X64928761Y-159472380D01*
X64833523Y-159615238D01*
X64738285Y-159710476D01*
X64643047Y-159758095D01*
X66071619Y-159805714D02*
X66071619Y-160472380D01*
X65833523Y-159424761D02*
X65595428Y-160139047D01*
X66214476Y-160139047D01*
%TO.C,J2*%
X64206666Y-155916380D02*
X64206666Y-156630666D01*
X64159047Y-156773523D01*
X64063809Y-156868761D01*
X63920952Y-156916380D01*
X63825714Y-156916380D01*
X64635238Y-156011619D02*
X64682857Y-155964000D01*
X64778095Y-155916380D01*
X65016190Y-155916380D01*
X65111428Y-155964000D01*
X65159047Y-156011619D01*
X65206666Y-156106857D01*
X65206666Y-156202095D01*
X65159047Y-156344952D01*
X64587619Y-156916380D01*
X65206666Y-156916380D01*
%TO.C,A1*%
X150669714Y-116498666D02*
X151145904Y-116498666D01*
X150574476Y-116784380D02*
X150907809Y-115784380D01*
X151241142Y-116784380D01*
X152098285Y-116784380D02*
X151526857Y-116784380D01*
X151812571Y-116784380D02*
X151812571Y-115784380D01*
X151717333Y-115927238D01*
X151622095Y-116022476D01*
X151526857Y-116070095D01*
%TO.C,U1*%
X150622095Y-140676380D02*
X150622095Y-141485904D01*
X150669714Y-141581142D01*
X150717333Y-141628761D01*
X150812571Y-141676380D01*
X151003047Y-141676380D01*
X151098285Y-141628761D01*
X151145904Y-141581142D01*
X151193523Y-141485904D01*
X151193523Y-140676380D01*
X152193523Y-141676380D02*
X151622095Y-141676380D01*
X151907809Y-141676380D02*
X151907809Y-140676380D01*
X151812571Y-140819238D01*
X151717333Y-140914476D01*
X151622095Y-140962095D01*
%TO.C,U4*%
X160274095Y-140676380D02*
X160274095Y-141485904D01*
X160321714Y-141581142D01*
X160369333Y-141628761D01*
X160464571Y-141676380D01*
X160655047Y-141676380D01*
X160750285Y-141628761D01*
X160797904Y-141581142D01*
X160845523Y-141485904D01*
X160845523Y-140676380D01*
X161750285Y-141009714D02*
X161750285Y-141676380D01*
X161512190Y-140628761D02*
X161274095Y-141343047D01*
X161893142Y-141343047D01*
%TO.C,R8*%
X182205333Y-142184380D02*
X181872000Y-141708190D01*
X181633904Y-142184380D02*
X181633904Y-141184380D01*
X182014857Y-141184380D01*
X182110095Y-141232000D01*
X182157714Y-141279619D01*
X182205333Y-141374857D01*
X182205333Y-141517714D01*
X182157714Y-141612952D01*
X182110095Y-141660571D01*
X182014857Y-141708190D01*
X181633904Y-141708190D01*
X182776761Y-141612952D02*
X182681523Y-141565333D01*
X182633904Y-141517714D01*
X182586285Y-141422476D01*
X182586285Y-141374857D01*
X182633904Y-141279619D01*
X182681523Y-141232000D01*
X182776761Y-141184380D01*
X182967238Y-141184380D01*
X183062476Y-141232000D01*
X183110095Y-141279619D01*
X183157714Y-141374857D01*
X183157714Y-141422476D01*
X183110095Y-141517714D01*
X183062476Y-141565333D01*
X182967238Y-141612952D01*
X182776761Y-141612952D01*
X182681523Y-141660571D01*
X182633904Y-141708190D01*
X182586285Y-141803428D01*
X182586285Y-141993904D01*
X182633904Y-142089142D01*
X182681523Y-142136761D01*
X182776761Y-142184380D01*
X182967238Y-142184380D01*
X183062476Y-142136761D01*
X183110095Y-142089142D01*
X183157714Y-141993904D01*
X183157714Y-141803428D01*
X183110095Y-141708190D01*
X183062476Y-141660571D01*
X182967238Y-141612952D01*
%TO.C,C5*%
X164425333Y-140565142D02*
X164377714Y-140612761D01*
X164234857Y-140660380D01*
X164139619Y-140660380D01*
X163996761Y-140612761D01*
X163901523Y-140517523D01*
X163853904Y-140422285D01*
X163806285Y-140231809D01*
X163806285Y-140088952D01*
X163853904Y-139898476D01*
X163901523Y-139803238D01*
X163996761Y-139708000D01*
X164139619Y-139660380D01*
X164234857Y-139660380D01*
X164377714Y-139708000D01*
X164425333Y-139755619D01*
X165330095Y-139660380D02*
X164853904Y-139660380D01*
X164806285Y-140136571D01*
X164853904Y-140088952D01*
X164949142Y-140041333D01*
X165187238Y-140041333D01*
X165282476Y-140088952D01*
X165330095Y-140136571D01*
X165377714Y-140231809D01*
X165377714Y-140469904D01*
X165330095Y-140565142D01*
X165282476Y-140612761D01*
X165187238Y-140660380D01*
X164949142Y-140660380D01*
X164853904Y-140612761D01*
X164806285Y-140565142D01*
%TO.C,U6*%
X197866095Y-146566380D02*
X197866095Y-147375904D01*
X197913714Y-147471142D01*
X197961333Y-147518761D01*
X198056571Y-147566380D01*
X198247047Y-147566380D01*
X198342285Y-147518761D01*
X198389904Y-147471142D01*
X198437523Y-147375904D01*
X198437523Y-146566380D01*
X199342285Y-146566380D02*
X199151809Y-146566380D01*
X199056571Y-146614000D01*
X199008952Y-146661619D01*
X198913714Y-146804476D01*
X198866095Y-146994952D01*
X198866095Y-147375904D01*
X198913714Y-147471142D01*
X198961333Y-147518761D01*
X199056571Y-147566380D01*
X199247047Y-147566380D01*
X199342285Y-147518761D01*
X199389904Y-147471142D01*
X199437523Y-147375904D01*
X199437523Y-147137809D01*
X199389904Y-147042571D01*
X199342285Y-146994952D01*
X199247047Y-146947333D01*
X199056571Y-146947333D01*
X198961333Y-146994952D01*
X198913714Y-147042571D01*
X198866095Y-147137809D01*
%TO.C,U3*%
X111506095Y-137628380D02*
X111506095Y-138437904D01*
X111553714Y-138533142D01*
X111601333Y-138580761D01*
X111696571Y-138628380D01*
X111887047Y-138628380D01*
X111982285Y-138580761D01*
X112029904Y-138533142D01*
X112077523Y-138437904D01*
X112077523Y-137628380D01*
X112458476Y-137628380D02*
X113077523Y-137628380D01*
X112744190Y-138009333D01*
X112887047Y-138009333D01*
X112982285Y-138056952D01*
X113029904Y-138104571D01*
X113077523Y-138199809D01*
X113077523Y-138437904D01*
X113029904Y-138533142D01*
X112982285Y-138580761D01*
X112887047Y-138628380D01*
X112601333Y-138628380D01*
X112506095Y-138580761D01*
X112458476Y-138533142D01*
%TO.C,U2*%
X135382095Y-140676380D02*
X135382095Y-141485904D01*
X135429714Y-141581142D01*
X135477333Y-141628761D01*
X135572571Y-141676380D01*
X135763047Y-141676380D01*
X135858285Y-141628761D01*
X135905904Y-141581142D01*
X135953523Y-141485904D01*
X135953523Y-140676380D01*
X136382095Y-140771619D02*
X136429714Y-140724000D01*
X136524952Y-140676380D01*
X136763047Y-140676380D01*
X136858285Y-140724000D01*
X136905904Y-140771619D01*
X136953523Y-140866857D01*
X136953523Y-140962095D01*
X136905904Y-141104952D01*
X136334476Y-141676380D01*
X136953523Y-141676380D01*
%TO.C,R11*%
X208653142Y-140660380D02*
X208319809Y-140184190D01*
X208081714Y-140660380D02*
X208081714Y-139660380D01*
X208462666Y-139660380D01*
X208557904Y-139708000D01*
X208605523Y-139755619D01*
X208653142Y-139850857D01*
X208653142Y-139993714D01*
X208605523Y-140088952D01*
X208557904Y-140136571D01*
X208462666Y-140184190D01*
X208081714Y-140184190D01*
X209605523Y-140660380D02*
X209034095Y-140660380D01*
X209319809Y-140660380D02*
X209319809Y-139660380D01*
X209224571Y-139803238D01*
X209129333Y-139898476D01*
X209034095Y-139946095D01*
X210557904Y-140660380D02*
X209986476Y-140660380D01*
X210272190Y-140660380D02*
X210272190Y-139660380D01*
X210176952Y-139803238D01*
X210081714Y-139898476D01*
X209986476Y-139946095D01*
%TO.C,R10*%
X117213142Y-142184380D02*
X116879809Y-141708190D01*
X116641714Y-142184380D02*
X116641714Y-141184380D01*
X117022666Y-141184380D01*
X117117904Y-141232000D01*
X117165523Y-141279619D01*
X117213142Y-141374857D01*
X117213142Y-141517714D01*
X117165523Y-141612952D01*
X117117904Y-141660571D01*
X117022666Y-141708190D01*
X116641714Y-141708190D01*
X118165523Y-142184380D02*
X117594095Y-142184380D01*
X117879809Y-142184380D02*
X117879809Y-141184380D01*
X117784571Y-141327238D01*
X117689333Y-141422476D01*
X117594095Y-141470095D01*
X118784571Y-141184380D02*
X118879809Y-141184380D01*
X118975047Y-141232000D01*
X119022666Y-141279619D01*
X119070285Y-141374857D01*
X119117904Y-141565333D01*
X119117904Y-141803428D01*
X119070285Y-141993904D01*
X119022666Y-142089142D01*
X118975047Y-142136761D01*
X118879809Y-142184380D01*
X118784571Y-142184380D01*
X118689333Y-142136761D01*
X118641714Y-142089142D01*
X118594095Y-141993904D01*
X118546476Y-141803428D01*
X118546476Y-141565333D01*
X118594095Y-141374857D01*
X118641714Y-141279619D01*
X118689333Y-141232000D01*
X118784571Y-141184380D01*
%TO.C,R9*%
X114133333Y-142184380D02*
X113800000Y-141708190D01*
X113561904Y-142184380D02*
X113561904Y-141184380D01*
X113942857Y-141184380D01*
X114038095Y-141232000D01*
X114085714Y-141279619D01*
X114133333Y-141374857D01*
X114133333Y-141517714D01*
X114085714Y-141612952D01*
X114038095Y-141660571D01*
X113942857Y-141708190D01*
X113561904Y-141708190D01*
X114609523Y-142184380D02*
X114800000Y-142184380D01*
X114895238Y-142136761D01*
X114942857Y-142089142D01*
X115038095Y-141946285D01*
X115085714Y-141755809D01*
X115085714Y-141374857D01*
X115038095Y-141279619D01*
X114990476Y-141232000D01*
X114895238Y-141184380D01*
X114704761Y-141184380D01*
X114609523Y-141232000D01*
X114561904Y-141279619D01*
X114514285Y-141374857D01*
X114514285Y-141612952D01*
X114561904Y-141708190D01*
X114609523Y-141755809D01*
X114704761Y-141803428D01*
X114895238Y-141803428D01*
X114990476Y-141755809D01*
X115038095Y-141708190D01*
X115085714Y-141612952D01*
%TO.C,R7*%
X185253333Y-142184380D02*
X184920000Y-141708190D01*
X184681904Y-142184380D02*
X184681904Y-141184380D01*
X185062857Y-141184380D01*
X185158095Y-141232000D01*
X185205714Y-141279619D01*
X185253333Y-141374857D01*
X185253333Y-141517714D01*
X185205714Y-141612952D01*
X185158095Y-141660571D01*
X185062857Y-141708190D01*
X184681904Y-141708190D01*
X185586666Y-141184380D02*
X186253333Y-141184380D01*
X185824761Y-142184380D01*
%TO.C,R6*%
X188301333Y-142184380D02*
X187968000Y-141708190D01*
X187729904Y-142184380D02*
X187729904Y-141184380D01*
X188110857Y-141184380D01*
X188206095Y-141232000D01*
X188253714Y-141279619D01*
X188301333Y-141374857D01*
X188301333Y-141517714D01*
X188253714Y-141612952D01*
X188206095Y-141660571D01*
X188110857Y-141708190D01*
X187729904Y-141708190D01*
X189158476Y-141184380D02*
X188968000Y-141184380D01*
X188872761Y-141232000D01*
X188825142Y-141279619D01*
X188729904Y-141422476D01*
X188682285Y-141612952D01*
X188682285Y-141993904D01*
X188729904Y-142089142D01*
X188777523Y-142136761D01*
X188872761Y-142184380D01*
X189063238Y-142184380D01*
X189158476Y-142136761D01*
X189206095Y-142089142D01*
X189253714Y-141993904D01*
X189253714Y-141755809D01*
X189206095Y-141660571D01*
X189158476Y-141612952D01*
X189063238Y-141565333D01*
X188872761Y-141565333D01*
X188777523Y-141612952D01*
X188729904Y-141660571D01*
X188682285Y-141755809D01*
%TO.C,R5*%
X102957333Y-136596380D02*
X102624000Y-136120190D01*
X102385904Y-136596380D02*
X102385904Y-135596380D01*
X102766857Y-135596380D01*
X102862095Y-135644000D01*
X102909714Y-135691619D01*
X102957333Y-135786857D01*
X102957333Y-135929714D01*
X102909714Y-136024952D01*
X102862095Y-136072571D01*
X102766857Y-136120190D01*
X102385904Y-136120190D01*
X103862095Y-135596380D02*
X103385904Y-135596380D01*
X103338285Y-136072571D01*
X103385904Y-136024952D01*
X103481142Y-135977333D01*
X103719238Y-135977333D01*
X103814476Y-136024952D01*
X103862095Y-136072571D01*
X103909714Y-136167809D01*
X103909714Y-136405904D01*
X103862095Y-136501142D01*
X103814476Y-136548761D01*
X103719238Y-136596380D01*
X103481142Y-136596380D01*
X103385904Y-136548761D01*
X103338285Y-136501142D01*
%TO.C,R4*%
X121245333Y-142184380D02*
X120912000Y-141708190D01*
X120673904Y-142184380D02*
X120673904Y-141184380D01*
X121054857Y-141184380D01*
X121150095Y-141232000D01*
X121197714Y-141279619D01*
X121245333Y-141374857D01*
X121245333Y-141517714D01*
X121197714Y-141612952D01*
X121150095Y-141660571D01*
X121054857Y-141708190D01*
X120673904Y-141708190D01*
X122102476Y-141517714D02*
X122102476Y-142184380D01*
X121864380Y-141136761D02*
X121626285Y-141851047D01*
X122245333Y-141851047D01*
%TO.C,R3*%
X124801333Y-142184380D02*
X124468000Y-141708190D01*
X124229904Y-142184380D02*
X124229904Y-141184380D01*
X124610857Y-141184380D01*
X124706095Y-141232000D01*
X124753714Y-141279619D01*
X124801333Y-141374857D01*
X124801333Y-141517714D01*
X124753714Y-141612952D01*
X124706095Y-141660571D01*
X124610857Y-141708190D01*
X124229904Y-141708190D01*
X125134666Y-141184380D02*
X125753714Y-141184380D01*
X125420380Y-141565333D01*
X125563238Y-141565333D01*
X125658476Y-141612952D01*
X125706095Y-141660571D01*
X125753714Y-141755809D01*
X125753714Y-141993904D01*
X125706095Y-142089142D01*
X125658476Y-142136761D01*
X125563238Y-142184380D01*
X125277523Y-142184380D01*
X125182285Y-142136761D01*
X125134666Y-142089142D01*
%TO.C,R2*%
X128357333Y-142184380D02*
X128024000Y-141708190D01*
X127785904Y-142184380D02*
X127785904Y-141184380D01*
X128166857Y-141184380D01*
X128262095Y-141232000D01*
X128309714Y-141279619D01*
X128357333Y-141374857D01*
X128357333Y-141517714D01*
X128309714Y-141612952D01*
X128262095Y-141660571D01*
X128166857Y-141708190D01*
X127785904Y-141708190D01*
X128738285Y-141279619D02*
X128785904Y-141232000D01*
X128881142Y-141184380D01*
X129119238Y-141184380D01*
X129214476Y-141232000D01*
X129262095Y-141279619D01*
X129309714Y-141374857D01*
X129309714Y-141470095D01*
X129262095Y-141612952D01*
X128690666Y-142184380D01*
X129309714Y-142184380D01*
%TO.C,R1*%
X110069333Y-151836380D02*
X109736000Y-151360190D01*
X109497904Y-151836380D02*
X109497904Y-150836380D01*
X109878857Y-150836380D01*
X109974095Y-150884000D01*
X110021714Y-150931619D01*
X110069333Y-151026857D01*
X110069333Y-151169714D01*
X110021714Y-151264952D01*
X109974095Y-151312571D01*
X109878857Y-151360190D01*
X109497904Y-151360190D01*
X111021714Y-151836380D02*
X110450285Y-151836380D01*
X110736000Y-151836380D02*
X110736000Y-150836380D01*
X110640761Y-150979238D01*
X110545523Y-151074476D01*
X110450285Y-151122095D01*
%TO.C,J13*%
X94186476Y-155916380D02*
X94186476Y-156630666D01*
X94138857Y-156773523D01*
X94043619Y-156868761D01*
X93900761Y-156916380D01*
X93805523Y-156916380D01*
X95186476Y-156916380D02*
X94615047Y-156916380D01*
X94900761Y-156916380D02*
X94900761Y-155916380D01*
X94805523Y-156059238D01*
X94710285Y-156154476D01*
X94615047Y-156202095D01*
X95519809Y-155916380D02*
X96138857Y-155916380D01*
X95805523Y-156297333D01*
X95948380Y-156297333D01*
X96043619Y-156344952D01*
X96091238Y-156392571D01*
X96138857Y-156487809D01*
X96138857Y-156725904D01*
X96091238Y-156821142D01*
X96043619Y-156868761D01*
X95948380Y-156916380D01*
X95662666Y-156916380D01*
X95567428Y-156868761D01*
X95519809Y-156821142D01*
%TO.C,J5*%
X187626666Y-155408380D02*
X187626666Y-156122666D01*
X187579047Y-156265523D01*
X187483809Y-156360761D01*
X187340952Y-156408380D01*
X187245714Y-156408380D01*
X188579047Y-155408380D02*
X188102857Y-155408380D01*
X188055238Y-155884571D01*
X188102857Y-155836952D01*
X188198095Y-155789333D01*
X188436190Y-155789333D01*
X188531428Y-155836952D01*
X188579047Y-155884571D01*
X188626666Y-155979809D01*
X188626666Y-156217904D01*
X188579047Y-156313142D01*
X188531428Y-156360761D01*
X188436190Y-156408380D01*
X188198095Y-156408380D01*
X188102857Y-156360761D01*
X188055238Y-156313142D01*
%TO.C,J4*%
X126666666Y-155408380D02*
X126666666Y-156122666D01*
X126619047Y-156265523D01*
X126523809Y-156360761D01*
X126380952Y-156408380D01*
X126285714Y-156408380D01*
X127571428Y-155741714D02*
X127571428Y-156408380D01*
X127333333Y-155360761D02*
X127095238Y-156075047D01*
X127714285Y-156075047D01*
%TO.C,J3*%
X138350666Y-155408380D02*
X138350666Y-156122666D01*
X138303047Y-156265523D01*
X138207809Y-156360761D01*
X138064952Y-156408380D01*
X137969714Y-156408380D01*
X138731619Y-155408380D02*
X139350666Y-155408380D01*
X139017333Y-155789333D01*
X139160190Y-155789333D01*
X139255428Y-155836952D01*
X139303047Y-155884571D01*
X139350666Y-155979809D01*
X139350666Y-156217904D01*
X139303047Y-156313142D01*
X139255428Y-156360761D01*
X139160190Y-156408380D01*
X138874476Y-156408380D01*
X138779238Y-156360761D01*
X138731619Y-156313142D01*
%TO.C,J1*%
X112442666Y-155408380D02*
X112442666Y-156122666D01*
X112395047Y-156265523D01*
X112299809Y-156360761D01*
X112156952Y-156408380D01*
X112061714Y-156408380D01*
X113442666Y-156408380D02*
X112871238Y-156408380D01*
X113156952Y-156408380D02*
X113156952Y-155408380D01*
X113061714Y-155551238D01*
X112966476Y-155646476D01*
X112871238Y-155694095D01*
%TO.C,D3*%
X208303904Y-159352380D02*
X208303904Y-158352380D01*
X208542000Y-158352380D01*
X208684857Y-158400000D01*
X208780095Y-158495238D01*
X208827714Y-158590476D01*
X208875333Y-158780952D01*
X208875333Y-158923809D01*
X208827714Y-159114285D01*
X208780095Y-159209523D01*
X208684857Y-159304761D01*
X208542000Y-159352380D01*
X208303904Y-159352380D01*
X209208666Y-158352380D02*
X209827714Y-158352380D01*
X209494380Y-158733333D01*
X209637238Y-158733333D01*
X209732476Y-158780952D01*
X209780095Y-158828571D01*
X209827714Y-158923809D01*
X209827714Y-159161904D01*
X209780095Y-159257142D01*
X209732476Y-159304761D01*
X209637238Y-159352380D01*
X209351523Y-159352380D01*
X209256285Y-159304761D01*
X209208666Y-159257142D01*
%TO.C,D2*%
X197381904Y-157932380D02*
X197381904Y-156932380D01*
X197620000Y-156932380D01*
X197762857Y-156980000D01*
X197858095Y-157075238D01*
X197905714Y-157170476D01*
X197953333Y-157360952D01*
X197953333Y-157503809D01*
X197905714Y-157694285D01*
X197858095Y-157789523D01*
X197762857Y-157884761D01*
X197620000Y-157932380D01*
X197381904Y-157932380D01*
X198334285Y-157027619D02*
X198381904Y-156980000D01*
X198477142Y-156932380D01*
X198715238Y-156932380D01*
X198810476Y-156980000D01*
X198858095Y-157027619D01*
X198905714Y-157122857D01*
X198905714Y-157218095D01*
X198858095Y-157360952D01*
X198286666Y-157932380D01*
X198905714Y-157932380D01*
X191254095Y-155392380D02*
X191254095Y-154392380D01*
X191825523Y-155392380D02*
X191396952Y-154820952D01*
X191825523Y-154392380D02*
X191254095Y-154963809D01*
%TO.C,C4*%
X205573333Y-142597142D02*
X205525714Y-142644761D01*
X205382857Y-142692380D01*
X205287619Y-142692380D01*
X205144761Y-142644761D01*
X205049523Y-142549523D01*
X205001904Y-142454285D01*
X204954285Y-142263809D01*
X204954285Y-142120952D01*
X205001904Y-141930476D01*
X205049523Y-141835238D01*
X205144761Y-141740000D01*
X205287619Y-141692380D01*
X205382857Y-141692380D01*
X205525714Y-141740000D01*
X205573333Y-141787619D01*
X206430476Y-142025714D02*
X206430476Y-142692380D01*
X206192380Y-141644761D02*
X205954285Y-142359047D01*
X206573333Y-142359047D01*
%TO.C,C3*%
X191349333Y-142597142D02*
X191301714Y-142644761D01*
X191158857Y-142692380D01*
X191063619Y-142692380D01*
X190920761Y-142644761D01*
X190825523Y-142549523D01*
X190777904Y-142454285D01*
X190730285Y-142263809D01*
X190730285Y-142120952D01*
X190777904Y-141930476D01*
X190825523Y-141835238D01*
X190920761Y-141740000D01*
X191063619Y-141692380D01*
X191158857Y-141692380D01*
X191301714Y-141740000D01*
X191349333Y-141787619D01*
X191682666Y-141692380D02*
X192301714Y-141692380D01*
X191968380Y-142073333D01*
X192111238Y-142073333D01*
X192206476Y-142120952D01*
X192254095Y-142168571D01*
X192301714Y-142263809D01*
X192301714Y-142501904D01*
X192254095Y-142597142D01*
X192206476Y-142644761D01*
X192111238Y-142692380D01*
X191825523Y-142692380D01*
X191730285Y-142644761D01*
X191682666Y-142597142D01*
%TO.C,C2*%
X143089333Y-143613142D02*
X143041714Y-143660761D01*
X142898857Y-143708380D01*
X142803619Y-143708380D01*
X142660761Y-143660761D01*
X142565523Y-143565523D01*
X142517904Y-143470285D01*
X142470285Y-143279809D01*
X142470285Y-143136952D01*
X142517904Y-142946476D01*
X142565523Y-142851238D01*
X142660761Y-142756000D01*
X142803619Y-142708380D01*
X142898857Y-142708380D01*
X143041714Y-142756000D01*
X143089333Y-142803619D01*
X143470285Y-142803619D02*
X143517904Y-142756000D01*
X143613142Y-142708380D01*
X143851238Y-142708380D01*
X143946476Y-142756000D01*
X143994095Y-142803619D01*
X144041714Y-142898857D01*
X144041714Y-142994095D01*
X143994095Y-143136952D01*
X143422666Y-143708380D01*
X144041714Y-143708380D01*
%TO.C,C1*%
X157821333Y-143105142D02*
X157773714Y-143152761D01*
X157630857Y-143200380D01*
X157535619Y-143200380D01*
X157392761Y-143152761D01*
X157297523Y-143057523D01*
X157249904Y-142962285D01*
X157202285Y-142771809D01*
X157202285Y-142628952D01*
X157249904Y-142438476D01*
X157297523Y-142343238D01*
X157392761Y-142248000D01*
X157535619Y-142200380D01*
X157630857Y-142200380D01*
X157773714Y-142248000D01*
X157821333Y-142295619D01*
X158773714Y-143200380D02*
X158202285Y-143200380D01*
X158488000Y-143200380D02*
X158488000Y-142200380D01*
X158392761Y-142343238D01*
X158297523Y-142438476D01*
X158202285Y-142486095D01*
%TD*%
M02*
