%TF.GenerationSoftware,KiCad,Pcbnew,(5.1.6)-1*%
%TF.CreationDate,2020-09-07T22:38:35-04:00*%
%TF.ProjectId,FATARMATRIXPCBBOARD,46415441-524d-4415-9452-495850434242,rev?*%
%TF.SameCoordinates,Original*%
%TF.FileFunction,Soldermask,Top*%
%TF.FilePolarity,Negative*%
%FSLAX46Y46*%
G04 Gerber Fmt 4.6, Leading zero omitted, Abs format (unit mm)*
G04 Created by KiCad (PCBNEW (5.1.6)-1) date 2020-09-07 22:38:35*
%MOMM*%
%LPD*%
G01*
G04 APERTURE LIST*
%TA.AperFunction,Profile*%
%ADD10C,0.050000*%
%TD*%
%ADD11O,1.700000X1.700000*%
%ADD12R,1.700000X1.700000*%
%ADD13O,1.800000X1.800000*%
%ADD14R,1.800000X1.800000*%
%ADD15C,3.100000*%
%ADD16C,0.100000*%
%ADD17O,1.700000X2.500000*%
%ADD18R,1.700000X2.500000*%
%ADD19C,1.700000*%
%ADD20O,2.005000X2.100000*%
%ADD21R,2.005000X2.100000*%
%ADD22C,1.900000*%
%ADD23R,1.900000X1.900000*%
%ADD24O,2.300000X2.300000*%
%ADD25R,2.300000X2.300000*%
G04 APERTURE END LIST*
D10*
X57404000Y-111760000D02*
X57404000Y-165608000D01*
X160020000Y-111760000D02*
X57404000Y-111760000D01*
X160020000Y-114300000D02*
X160020000Y-111760000D01*
X160020000Y-137160000D02*
X160020000Y-114300000D01*
X213360000Y-137160000D02*
X160020000Y-137160000D01*
X213360000Y-165608000D02*
X213360000Y-137160000D01*
X57404000Y-165608000D02*
X213360000Y-165608000D01*
D11*
%TO.C,A2*%
X70612000Y-134112000D03*
X70612000Y-118872000D03*
X106172000Y-134112000D03*
X73152000Y-118872000D03*
X103632000Y-134112000D03*
X75692000Y-118872000D03*
X101092000Y-134112000D03*
X78232000Y-118872000D03*
X98552000Y-134112000D03*
X80772000Y-118872000D03*
X96012000Y-134112000D03*
X83312000Y-118872000D03*
X93472000Y-134112000D03*
X85852000Y-118872000D03*
X90932000Y-134112000D03*
X88392000Y-118872000D03*
X88392000Y-134112000D03*
X90932000Y-118872000D03*
X85852000Y-134112000D03*
X93472000Y-118872000D03*
X83312000Y-134112000D03*
X96012000Y-118872000D03*
X80772000Y-134112000D03*
X98552000Y-118872000D03*
X78232000Y-134112000D03*
X101092000Y-118872000D03*
X75692000Y-134112000D03*
X103632000Y-118872000D03*
X73152000Y-134112000D03*
D12*
X106172000Y-118872000D03*
%TD*%
D13*
%TO.C,J17*%
X105156000Y-154940000D03*
D14*
X105156000Y-152400000D03*
%TD*%
D13*
%TO.C,J16*%
X101092000Y-154940000D03*
D14*
X101092000Y-152400000D03*
%TD*%
D15*
%TO.C,H4*%
X60960000Y-115316000D03*
%TD*%
%TO.C,H3*%
X156464000Y-115316000D03*
%TD*%
%TO.C,H2*%
X202692000Y-160528000D03*
%TD*%
%TO.C,H1*%
X200660000Y-141224000D03*
%TD*%
D16*
%TO.C,JP1*%
G36*
X118004111Y-138392602D02*
G01*
X118022534Y-138392602D01*
X118027435Y-138392843D01*
X118076266Y-138397653D01*
X118081119Y-138398373D01*
X118129244Y-138407945D01*
X118134005Y-138409137D01*
X118180960Y-138423381D01*
X118185579Y-138425034D01*
X118230912Y-138443811D01*
X118235349Y-138445909D01*
X118278622Y-138469040D01*
X118282829Y-138471562D01*
X118323628Y-138498822D01*
X118327570Y-138501746D01*
X118365499Y-138532874D01*
X118369134Y-138536169D01*
X118403831Y-138570866D01*
X118407126Y-138574501D01*
X118438254Y-138612430D01*
X118441178Y-138616372D01*
X118468438Y-138657171D01*
X118470960Y-138661378D01*
X118494091Y-138704651D01*
X118496189Y-138709088D01*
X118514966Y-138754421D01*
X118516619Y-138759040D01*
X118530863Y-138805995D01*
X118532055Y-138810756D01*
X118541627Y-138858881D01*
X118542347Y-138863734D01*
X118547157Y-138912565D01*
X118547398Y-138917466D01*
X118547398Y-138935889D01*
X118548000Y-138942000D01*
X118548000Y-139442000D01*
X118547398Y-139448111D01*
X118547398Y-139466534D01*
X118547157Y-139471435D01*
X118542347Y-139520266D01*
X118541627Y-139525119D01*
X118532055Y-139573244D01*
X118530863Y-139578005D01*
X118516619Y-139624960D01*
X118514966Y-139629579D01*
X118496189Y-139674912D01*
X118494091Y-139679349D01*
X118470960Y-139722622D01*
X118468438Y-139726829D01*
X118441178Y-139767628D01*
X118438254Y-139771570D01*
X118407126Y-139809499D01*
X118403831Y-139813134D01*
X118369134Y-139847831D01*
X118365499Y-139851126D01*
X118327570Y-139882254D01*
X118323628Y-139885178D01*
X118282829Y-139912438D01*
X118278622Y-139914960D01*
X118235349Y-139938091D01*
X118230912Y-139940189D01*
X118185579Y-139958966D01*
X118180960Y-139960619D01*
X118134005Y-139974863D01*
X118129244Y-139976055D01*
X118081119Y-139985627D01*
X118076266Y-139986347D01*
X118027435Y-139991157D01*
X118022534Y-139991398D01*
X118004111Y-139991398D01*
X117998000Y-139992000D01*
X117498000Y-139992000D01*
X117488245Y-139991039D01*
X117478866Y-139988194D01*
X117470221Y-139983573D01*
X117462645Y-139977355D01*
X117456427Y-139969779D01*
X117451806Y-139961134D01*
X117448961Y-139951755D01*
X117448000Y-139942000D01*
X117448000Y-138442000D01*
X117448961Y-138432245D01*
X117451806Y-138422866D01*
X117456427Y-138414221D01*
X117462645Y-138406645D01*
X117470221Y-138400427D01*
X117478866Y-138395806D01*
X117488245Y-138392961D01*
X117498000Y-138392000D01*
X117998000Y-138392000D01*
X118004111Y-138392602D01*
G37*
G36*
X117207755Y-138392961D02*
G01*
X117217134Y-138395806D01*
X117225779Y-138400427D01*
X117233355Y-138406645D01*
X117239573Y-138414221D01*
X117244194Y-138422866D01*
X117247039Y-138432245D01*
X117248000Y-138442000D01*
X117248000Y-139942000D01*
X117247039Y-139951755D01*
X117244194Y-139961134D01*
X117239573Y-139969779D01*
X117233355Y-139977355D01*
X117225779Y-139983573D01*
X117217134Y-139988194D01*
X117207755Y-139991039D01*
X117198000Y-139992000D01*
X116698000Y-139992000D01*
X116691889Y-139991398D01*
X116673466Y-139991398D01*
X116668565Y-139991157D01*
X116619734Y-139986347D01*
X116614881Y-139985627D01*
X116566756Y-139976055D01*
X116561995Y-139974863D01*
X116515040Y-139960619D01*
X116510421Y-139958966D01*
X116465088Y-139940189D01*
X116460651Y-139938091D01*
X116417378Y-139914960D01*
X116413171Y-139912438D01*
X116372372Y-139885178D01*
X116368430Y-139882254D01*
X116330501Y-139851126D01*
X116326866Y-139847831D01*
X116292169Y-139813134D01*
X116288874Y-139809499D01*
X116257746Y-139771570D01*
X116254822Y-139767628D01*
X116227562Y-139726829D01*
X116225040Y-139722622D01*
X116201909Y-139679349D01*
X116199811Y-139674912D01*
X116181034Y-139629579D01*
X116179381Y-139624960D01*
X116165137Y-139578005D01*
X116163945Y-139573244D01*
X116154373Y-139525119D01*
X116153653Y-139520266D01*
X116148843Y-139471435D01*
X116148602Y-139466534D01*
X116148602Y-139448111D01*
X116148000Y-139442000D01*
X116148000Y-138942000D01*
X116148602Y-138935889D01*
X116148602Y-138917466D01*
X116148843Y-138912565D01*
X116153653Y-138863734D01*
X116154373Y-138858881D01*
X116163945Y-138810756D01*
X116165137Y-138805995D01*
X116179381Y-138759040D01*
X116181034Y-138754421D01*
X116199811Y-138709088D01*
X116201909Y-138704651D01*
X116225040Y-138661378D01*
X116227562Y-138657171D01*
X116254822Y-138616372D01*
X116257746Y-138612430D01*
X116288874Y-138574501D01*
X116292169Y-138570866D01*
X116326866Y-138536169D01*
X116330501Y-138532874D01*
X116368430Y-138501746D01*
X116372372Y-138498822D01*
X116413171Y-138471562D01*
X116417378Y-138469040D01*
X116460651Y-138445909D01*
X116465088Y-138443811D01*
X116510421Y-138425034D01*
X116515040Y-138423381D01*
X116561995Y-138409137D01*
X116566756Y-138407945D01*
X116614881Y-138398373D01*
X116619734Y-138397653D01*
X116668565Y-138392843D01*
X116673466Y-138392602D01*
X116691889Y-138392602D01*
X116698000Y-138392000D01*
X117198000Y-138392000D01*
X117207755Y-138392961D01*
G37*
%TD*%
D14*
%TO.C,J15*%
X181864000Y-158496000D03*
%TD*%
%TO.C,J12*%
X166624000Y-158496000D03*
%TD*%
%TO.C,J11*%
X171704000Y-158496000D03*
%TD*%
%TO.C,J10*%
X161544000Y-158496000D03*
%TD*%
%TO.C,J9*%
X176784000Y-158496000D03*
%TD*%
%TO.C,J8*%
X156464000Y-158496000D03*
%TD*%
%TO.C,J7*%
X151384000Y-158496000D03*
%TD*%
%TO.C,J6*%
X146304000Y-158496000D03*
%TD*%
D13*
%TO.C,J14*%
X91440000Y-159512000D03*
X88900000Y-159512000D03*
X86360000Y-159512000D03*
X83820000Y-159512000D03*
X81280000Y-159512000D03*
X78740000Y-159512000D03*
X76200000Y-159512000D03*
X73660000Y-159512000D03*
X71120000Y-159512000D03*
D14*
X68580000Y-159512000D03*
%TD*%
D13*
%TO.C,J2*%
X90170000Y-156464000D03*
X87630000Y-156464000D03*
X85090000Y-156464000D03*
X82550000Y-156464000D03*
X80010000Y-156464000D03*
X77470000Y-156464000D03*
X74930000Y-156464000D03*
X72390000Y-156464000D03*
X69850000Y-156464000D03*
D14*
X67310000Y-156464000D03*
%TD*%
D11*
%TO.C,A1*%
X150876000Y-118872000D03*
X150876000Y-134112000D03*
X115316000Y-118872000D03*
X148336000Y-134112000D03*
X117856000Y-118872000D03*
X145796000Y-134112000D03*
X120396000Y-118872000D03*
X143256000Y-134112000D03*
X122936000Y-118872000D03*
X140716000Y-134112000D03*
X125476000Y-118872000D03*
X138176000Y-134112000D03*
X128016000Y-118872000D03*
X135636000Y-134112000D03*
X130556000Y-118872000D03*
X133096000Y-134112000D03*
X133096000Y-118872000D03*
X130556000Y-134112000D03*
X135636000Y-118872000D03*
X128016000Y-134112000D03*
X138176000Y-118872000D03*
X125476000Y-134112000D03*
X140716000Y-118872000D03*
X122936000Y-134112000D03*
X143256000Y-118872000D03*
X120396000Y-134112000D03*
X145796000Y-118872000D03*
X117856000Y-134112000D03*
X148336000Y-118872000D03*
D12*
X115316000Y-134112000D03*
%TD*%
D17*
%TO.C,U1*%
X154432000Y-151384000D03*
X146812000Y-143764000D03*
X151892000Y-151384000D03*
X149352000Y-143764000D03*
X149352000Y-151384000D03*
X151892000Y-143764000D03*
X146812000Y-151384000D03*
D18*
X154432000Y-143764000D03*
%TD*%
D17*
%TO.C,U4*%
X176784000Y-151384000D03*
X161544000Y-143764000D03*
X174244000Y-151384000D03*
X164084000Y-143764000D03*
X171704000Y-151384000D03*
X166624000Y-143764000D03*
X169164000Y-151384000D03*
X169164000Y-143764000D03*
X166624000Y-151384000D03*
X171704000Y-143764000D03*
X164084000Y-151384000D03*
X174244000Y-143764000D03*
X161544000Y-151384000D03*
D18*
X176784000Y-143764000D03*
%TD*%
D11*
%TO.C,R8*%
X182372000Y-143764000D03*
D19*
X182372000Y-151384000D03*
%TD*%
%TO.C,C5*%
X172132000Y-140208000D03*
X167132000Y-140208000D03*
%TD*%
D20*
%TO.C,U6*%
X201168000Y-151384000D03*
X198628000Y-151384000D03*
D21*
X196088000Y-151384000D03*
%TD*%
D11*
%TO.C,U3*%
X107188000Y-138176000D03*
X109728000Y-145796000D03*
X109728000Y-138176000D03*
D12*
X107188000Y-145796000D03*
%TD*%
D17*
%TO.C,U2*%
X139700000Y-151384000D03*
X132080000Y-143764000D03*
X137160000Y-151384000D03*
X134620000Y-143764000D03*
X134620000Y-151384000D03*
X137160000Y-143764000D03*
X132080000Y-151384000D03*
D18*
X139700000Y-143764000D03*
%TD*%
D11*
%TO.C,R11*%
X209296000Y-149860000D03*
D19*
X209296000Y-142240000D03*
%TD*%
D11*
%TO.C,R10*%
X117856000Y-151384000D03*
D19*
X117856000Y-143764000D03*
%TD*%
D11*
%TO.C,R9*%
X114300000Y-143764000D03*
D19*
X114300000Y-151384000D03*
%TD*%
D11*
%TO.C,R7*%
X185420000Y-151384000D03*
D19*
X185420000Y-143764000D03*
%TD*%
D11*
%TO.C,R6*%
X188468000Y-151384000D03*
D19*
X188468000Y-143764000D03*
%TD*%
D11*
%TO.C,R5*%
X103124000Y-145796000D03*
D19*
X103124000Y-138176000D03*
%TD*%
D11*
%TO.C,R4*%
X121412000Y-143764000D03*
D19*
X121412000Y-151384000D03*
%TD*%
D11*
%TO.C,R3*%
X124968000Y-143764000D03*
D19*
X124968000Y-151384000D03*
%TD*%
D11*
%TO.C,R2*%
X128524000Y-143764000D03*
D19*
X128524000Y-151384000D03*
%TD*%
D11*
%TO.C,R1*%
X102616000Y-148844000D03*
D19*
X110236000Y-148844000D03*
%TD*%
D13*
%TO.C,J13*%
X95504000Y-159004000D03*
X98044000Y-159004000D03*
X100584000Y-159004000D03*
D14*
X103124000Y-159004000D03*
%TD*%
D13*
%TO.C,J5*%
X186944000Y-158496000D03*
D14*
X189484000Y-158496000D03*
%TD*%
D13*
%TO.C,J4*%
X121920000Y-158496000D03*
X124460000Y-158496000D03*
X127000000Y-158496000D03*
X129540000Y-158496000D03*
D14*
X132080000Y-158496000D03*
%TD*%
D13*
%TO.C,J3*%
X141224000Y-158496000D03*
X138684000Y-158496000D03*
D14*
X136144000Y-158496000D03*
%TD*%
D13*
%TO.C,J1*%
X107696000Y-158496000D03*
X110236000Y-158496000D03*
X112776000Y-158496000D03*
X115316000Y-158496000D03*
D14*
X117856000Y-158496000D03*
%TD*%
D22*
%TO.C,D3*%
X207772000Y-154940000D03*
D23*
X210312000Y-154940000D03*
%TD*%
D24*
%TO.C,D2*%
X203708000Y-154940000D03*
D25*
X193548000Y-154940000D03*
%TD*%
D19*
%TO.C,C4*%
X205740000Y-144352000D03*
X205740000Y-149352000D03*
%TD*%
%TO.C,C3*%
X191516000Y-144352000D03*
X191516000Y-149352000D03*
%TD*%
%TO.C,C2*%
X143256000Y-150368000D03*
X143256000Y-145368000D03*
%TD*%
%TO.C,C1*%
X157988000Y-144860000D03*
X157988000Y-149860000D03*
%TD*%
M02*
