%TF.GenerationSoftware,KiCad,Pcbnew,(5.1.6)-1*%
%TF.CreationDate,2020-09-07T22:38:35-04:00*%
%TF.ProjectId,FATARMATRIXPCBBOARD,46415441-524d-4415-9452-495850434242,rev?*%
%TF.SameCoordinates,Original*%
%TF.FileFunction,Soldermask,Bot*%
%TF.FilePolarity,Negative*%
%FSLAX46Y46*%
G04 Gerber Fmt 4.6, Leading zero omitted, Abs format (unit mm)*
G04 Created by KiCad (PCBNEW (5.1.6)-1) date 2020-09-07 22:38:35*
%MOMM*%
%LPD*%
G01*
G04 APERTURE LIST*
%TA.AperFunction,Profile*%
%ADD10C,0.050000*%
%TD*%
%ADD11O,1.700000X1.700000*%
%ADD12R,1.700000X1.700000*%
%ADD13O,1.800000X1.800000*%
%ADD14R,1.800000X1.800000*%
%ADD15C,3.100000*%
%ADD16O,1.700000X2.500000*%
%ADD17R,1.700000X2.500000*%
%ADD18C,1.700000*%
%ADD19O,2.005000X2.100000*%
%ADD20R,2.005000X2.100000*%
%ADD21C,1.900000*%
%ADD22R,1.900000X1.900000*%
%ADD23O,2.300000X2.300000*%
%ADD24R,2.300000X2.300000*%
G04 APERTURE END LIST*
D10*
X57404000Y-111760000D02*
X57404000Y-165608000D01*
X160020000Y-111760000D02*
X57404000Y-111760000D01*
X160020000Y-114300000D02*
X160020000Y-111760000D01*
X160020000Y-137160000D02*
X160020000Y-114300000D01*
X213360000Y-137160000D02*
X160020000Y-137160000D01*
X213360000Y-165608000D02*
X213360000Y-137160000D01*
X57404000Y-165608000D02*
X213360000Y-165608000D01*
D11*
%TO.C,A2*%
X70612000Y-134112000D03*
X70612000Y-118872000D03*
X106172000Y-134112000D03*
X73152000Y-118872000D03*
X103632000Y-134112000D03*
X75692000Y-118872000D03*
X101092000Y-134112000D03*
X78232000Y-118872000D03*
X98552000Y-134112000D03*
X80772000Y-118872000D03*
X96012000Y-134112000D03*
X83312000Y-118872000D03*
X93472000Y-134112000D03*
X85852000Y-118872000D03*
X90932000Y-134112000D03*
X88392000Y-118872000D03*
X88392000Y-134112000D03*
X90932000Y-118872000D03*
X85852000Y-134112000D03*
X93472000Y-118872000D03*
X83312000Y-134112000D03*
X96012000Y-118872000D03*
X80772000Y-134112000D03*
X98552000Y-118872000D03*
X78232000Y-134112000D03*
X101092000Y-118872000D03*
X75692000Y-134112000D03*
X103632000Y-118872000D03*
X73152000Y-134112000D03*
D12*
X106172000Y-118872000D03*
%TD*%
D13*
%TO.C,J17*%
X105156000Y-154940000D03*
D14*
X105156000Y-152400000D03*
%TD*%
D13*
%TO.C,J16*%
X101092000Y-154940000D03*
D14*
X101092000Y-152400000D03*
%TD*%
D15*
%TO.C,H4*%
X60960000Y-115316000D03*
%TD*%
%TO.C,H3*%
X156464000Y-115316000D03*
%TD*%
%TO.C,H2*%
X202692000Y-160528000D03*
%TD*%
%TO.C,H1*%
X200660000Y-141224000D03*
%TD*%
D14*
%TO.C,J15*%
X181864000Y-158496000D03*
%TD*%
%TO.C,J12*%
X166624000Y-158496000D03*
%TD*%
%TO.C,J11*%
X171704000Y-158496000D03*
%TD*%
%TO.C,J10*%
X161544000Y-158496000D03*
%TD*%
%TO.C,J9*%
X176784000Y-158496000D03*
%TD*%
%TO.C,J8*%
X156464000Y-158496000D03*
%TD*%
%TO.C,J7*%
X151384000Y-158496000D03*
%TD*%
%TO.C,J6*%
X146304000Y-158496000D03*
%TD*%
D13*
%TO.C,J14*%
X91440000Y-159512000D03*
X88900000Y-159512000D03*
X86360000Y-159512000D03*
X83820000Y-159512000D03*
X81280000Y-159512000D03*
X78740000Y-159512000D03*
X76200000Y-159512000D03*
X73660000Y-159512000D03*
X71120000Y-159512000D03*
D14*
X68580000Y-159512000D03*
%TD*%
D13*
%TO.C,J2*%
X90170000Y-156464000D03*
X87630000Y-156464000D03*
X85090000Y-156464000D03*
X82550000Y-156464000D03*
X80010000Y-156464000D03*
X77470000Y-156464000D03*
X74930000Y-156464000D03*
X72390000Y-156464000D03*
X69850000Y-156464000D03*
D14*
X67310000Y-156464000D03*
%TD*%
D11*
%TO.C,A1*%
X150876000Y-118872000D03*
X150876000Y-134112000D03*
X115316000Y-118872000D03*
X148336000Y-134112000D03*
X117856000Y-118872000D03*
X145796000Y-134112000D03*
X120396000Y-118872000D03*
X143256000Y-134112000D03*
X122936000Y-118872000D03*
X140716000Y-134112000D03*
X125476000Y-118872000D03*
X138176000Y-134112000D03*
X128016000Y-118872000D03*
X135636000Y-134112000D03*
X130556000Y-118872000D03*
X133096000Y-134112000D03*
X133096000Y-118872000D03*
X130556000Y-134112000D03*
X135636000Y-118872000D03*
X128016000Y-134112000D03*
X138176000Y-118872000D03*
X125476000Y-134112000D03*
X140716000Y-118872000D03*
X122936000Y-134112000D03*
X143256000Y-118872000D03*
X120396000Y-134112000D03*
X145796000Y-118872000D03*
X117856000Y-134112000D03*
X148336000Y-118872000D03*
D12*
X115316000Y-134112000D03*
%TD*%
D16*
%TO.C,U1*%
X154432000Y-151384000D03*
X146812000Y-143764000D03*
X151892000Y-151384000D03*
X149352000Y-143764000D03*
X149352000Y-151384000D03*
X151892000Y-143764000D03*
X146812000Y-151384000D03*
D17*
X154432000Y-143764000D03*
%TD*%
D16*
%TO.C,U4*%
X176784000Y-151384000D03*
X161544000Y-143764000D03*
X174244000Y-151384000D03*
X164084000Y-143764000D03*
X171704000Y-151384000D03*
X166624000Y-143764000D03*
X169164000Y-151384000D03*
X169164000Y-143764000D03*
X166624000Y-151384000D03*
X171704000Y-143764000D03*
X164084000Y-151384000D03*
X174244000Y-143764000D03*
X161544000Y-151384000D03*
D17*
X176784000Y-143764000D03*
%TD*%
D11*
%TO.C,R8*%
X182372000Y-143764000D03*
D18*
X182372000Y-151384000D03*
%TD*%
%TO.C,C5*%
X172132000Y-140208000D03*
X167132000Y-140208000D03*
%TD*%
D19*
%TO.C,U6*%
X201168000Y-151384000D03*
X198628000Y-151384000D03*
D20*
X196088000Y-151384000D03*
%TD*%
D11*
%TO.C,U3*%
X107188000Y-138176000D03*
X109728000Y-145796000D03*
X109728000Y-138176000D03*
D12*
X107188000Y-145796000D03*
%TD*%
D16*
%TO.C,U2*%
X139700000Y-151384000D03*
X132080000Y-143764000D03*
X137160000Y-151384000D03*
X134620000Y-143764000D03*
X134620000Y-151384000D03*
X137160000Y-143764000D03*
X132080000Y-151384000D03*
D17*
X139700000Y-143764000D03*
%TD*%
D11*
%TO.C,R11*%
X209296000Y-149860000D03*
D18*
X209296000Y-142240000D03*
%TD*%
D11*
%TO.C,R10*%
X117856000Y-151384000D03*
D18*
X117856000Y-143764000D03*
%TD*%
D11*
%TO.C,R9*%
X114300000Y-143764000D03*
D18*
X114300000Y-151384000D03*
%TD*%
D11*
%TO.C,R7*%
X185420000Y-151384000D03*
D18*
X185420000Y-143764000D03*
%TD*%
D11*
%TO.C,R6*%
X188468000Y-151384000D03*
D18*
X188468000Y-143764000D03*
%TD*%
D11*
%TO.C,R5*%
X103124000Y-145796000D03*
D18*
X103124000Y-138176000D03*
%TD*%
D11*
%TO.C,R4*%
X121412000Y-143764000D03*
D18*
X121412000Y-151384000D03*
%TD*%
D11*
%TO.C,R3*%
X124968000Y-143764000D03*
D18*
X124968000Y-151384000D03*
%TD*%
D11*
%TO.C,R2*%
X128524000Y-143764000D03*
D18*
X128524000Y-151384000D03*
%TD*%
D11*
%TO.C,R1*%
X102616000Y-148844000D03*
D18*
X110236000Y-148844000D03*
%TD*%
D13*
%TO.C,J13*%
X95504000Y-159004000D03*
X98044000Y-159004000D03*
X100584000Y-159004000D03*
D14*
X103124000Y-159004000D03*
%TD*%
D13*
%TO.C,J5*%
X186944000Y-158496000D03*
D14*
X189484000Y-158496000D03*
%TD*%
D13*
%TO.C,J4*%
X121920000Y-158496000D03*
X124460000Y-158496000D03*
X127000000Y-158496000D03*
X129540000Y-158496000D03*
D14*
X132080000Y-158496000D03*
%TD*%
D13*
%TO.C,J3*%
X141224000Y-158496000D03*
X138684000Y-158496000D03*
D14*
X136144000Y-158496000D03*
%TD*%
D13*
%TO.C,J1*%
X107696000Y-158496000D03*
X110236000Y-158496000D03*
X112776000Y-158496000D03*
X115316000Y-158496000D03*
D14*
X117856000Y-158496000D03*
%TD*%
D21*
%TO.C,D3*%
X207772000Y-154940000D03*
D22*
X210312000Y-154940000D03*
%TD*%
D23*
%TO.C,D2*%
X203708000Y-154940000D03*
D24*
X193548000Y-154940000D03*
%TD*%
D18*
%TO.C,C4*%
X205740000Y-144352000D03*
X205740000Y-149352000D03*
%TD*%
%TO.C,C3*%
X191516000Y-144352000D03*
X191516000Y-149352000D03*
%TD*%
%TO.C,C2*%
X143256000Y-150368000D03*
X143256000Y-145368000D03*
%TD*%
%TO.C,C1*%
X157988000Y-144860000D03*
X157988000Y-149860000D03*
%TD*%
M02*
