M48
; DRILL file {KiCad (5.1.6)-1} date 09/07/20 22:38:23
; FORMAT={-:-/ absolute / inch / decimal}
; #@! TF.CreationDate,2020-09-07T22:38:23-04:00
; #@! TF.GenerationSoftware,Kicad,Pcbnew,(5.1.6)-1
FMAT,2
INCH
T1C0.0315
T2C0.0354
T3C0.0394
T4C0.0433
T5C0.1181
%
G90
G05
T1
X7.3Y-5.66
X7.3Y-5.96
X5.06Y-5.66
X5.06Y-5.96
X7.54Y-5.6831
X7.54Y-5.88
X4.22Y-5.44
X4.22Y-5.74
X4.32Y-5.44
X4.32Y-5.74
X4.78Y-5.66
X4.78Y-5.96
X8.1Y-5.6831
X8.1Y-5.88
X7.18Y-5.66
X7.18Y-5.96
X8.24Y-5.6
X8.24Y-5.9
X6.58Y-5.52
X6.7769Y-5.52
X4.64Y-5.66
X4.64Y-5.96
X6.22Y-5.7031
X6.22Y-5.9
X4.92Y-5.66
X4.92Y-5.96
X6.36Y-5.66
X6.36Y-5.96
X6.46Y-5.66
X6.46Y-5.96
X6.56Y-5.66
X6.56Y-5.96
X6.66Y-5.66
X6.66Y-5.96
X6.76Y-5.66
X6.76Y-5.96
X6.86Y-5.66
X6.86Y-5.96
X6.96Y-5.66
X6.96Y-5.96
X4.04Y-5.86
X4.34Y-5.86
X7.42Y-5.66
X7.42Y-5.96
X5.78Y-5.66
X5.78Y-5.96
X5.88Y-5.66
X5.88Y-5.96
X5.98Y-5.66
X5.98Y-5.96
X6.08Y-5.66
X6.08Y-5.96
X5.2Y-5.66
X5.2Y-5.96
X5.3Y-5.66
X5.3Y-5.96
X5.4Y-5.66
X5.4Y-5.96
X5.5Y-5.66
X5.5Y-5.96
X4.06Y-5.44
X4.06Y-5.74
X5.64Y-5.7231
X5.64Y-5.92
X4.5Y-5.66
X4.5Y-5.96
T2
X8.18Y-6.1
X8.28Y-6.1
T3
X5.76Y-6.24
X6.56Y-6.24
X5.96Y-6.24
X6.76Y-6.24
X5.36Y-6.24
X5.46Y-6.24
X5.56Y-6.24
X4.54Y-4.68
X4.54Y-5.28
X4.64Y-4.68
X4.64Y-5.28
X4.74Y-4.68
X4.74Y-5.28
X4.84Y-4.68
X4.84Y-5.28
X4.94Y-4.68
X4.94Y-5.28
X5.04Y-4.68
X5.04Y-5.28
X5.14Y-4.68
X5.14Y-5.28
X5.24Y-4.68
X5.24Y-5.28
X5.34Y-4.68
X5.34Y-5.28
X5.44Y-4.68
X5.44Y-5.28
X5.54Y-4.68
X5.54Y-5.28
X5.64Y-4.68
X5.64Y-5.28
X5.74Y-4.68
X5.74Y-5.28
X5.84Y-4.68
X5.84Y-5.28
X5.94Y-4.68
X5.94Y-5.28
X7.36Y-6.24
X7.46Y-6.24
X2.78Y-4.68
X2.78Y-5.28
X2.88Y-4.68
X2.88Y-5.28
X2.98Y-4.68
X2.98Y-5.28
X3.08Y-4.68
X3.08Y-5.28
X3.18Y-4.68
X3.18Y-5.28
X3.28Y-4.68
X3.28Y-5.28
X3.38Y-4.68
X3.38Y-5.28
X3.48Y-4.68
X3.48Y-5.28
X3.58Y-4.68
X3.58Y-5.28
X3.68Y-4.68
X3.68Y-5.28
X3.78Y-4.68
X3.78Y-5.28
X3.88Y-4.68
X3.88Y-5.28
X3.98Y-4.68
X3.98Y-5.28
X4.08Y-4.68
X4.08Y-5.28
X4.18Y-4.68
X4.18Y-5.28
X7.16Y-6.24
X4.24Y-6.24
X4.34Y-6.24
X4.44Y-6.24
X4.54Y-6.24
X4.64Y-6.24
X4.14Y-6.0
X4.14Y-6.1
X2.7Y-6.28
X2.8Y-6.28
X2.9Y-6.28
X3.0Y-6.28
X3.1Y-6.28
X3.2Y-6.28
X3.3Y-6.28
X3.4Y-6.28
X3.5Y-6.28
X3.6Y-6.28
X3.98Y-6.0
X3.98Y-6.1
X6.36Y-6.24
X6.96Y-6.24
X4.8Y-6.24
X4.9Y-6.24
X5.0Y-6.24
X5.1Y-6.24
X5.2Y-6.24
X3.76Y-6.26
X3.86Y-6.26
X3.96Y-6.26
X4.06Y-6.26
X2.65Y-6.16
X2.75Y-6.16
X2.85Y-6.16
X2.95Y-6.16
X3.05Y-6.16
X3.15Y-6.16
X3.25Y-6.16
X3.35Y-6.16
X3.45Y-6.16
X3.55Y-6.16
X6.16Y-6.24
T4
X7.72Y-5.96
X7.82Y-5.96
X7.92Y-5.96
X7.62Y-6.1
X8.02Y-6.1
T5
X2.4Y-4.54
X6.16Y-4.54
X7.9Y-5.56
X7.98Y-6.32
T0
M30
